<svg width="16" height="16" viewBox="0 0 16 16" fill="none" xmlns="http://www.w3.org/2000/svg">
<path d="M0.5 9.5V1.5C0.5 0.947715 0.947715 0.5 1.5 0.5H9.5C10.0523 0.5 10.5 0.947715 10.5 1.5V9.5C10.5 10.0523 10.0523 10.5 9.5 10.5H1.5C0.947715 10.5 0.5 10.0523 0.5 9.5Z" fill="#D9D9D9" stroke="#888888"/>
<path d="M4.5 13.5V5.5C4.5 4.94772 4.94772 4.5 5.5 4.5H13.5C14.0523 4.5 14.5 4.94772 14.5 5.5V13.5C14.5 14.0523 14.0523 14.5 13.5 14.5H5.5C4.94772 14.5 4.5 14.0523 4.5 13.5Z" fill="white" stroke="#616161"/>
</svg>
