<svg width="12" height="12" viewBox="0 0 12 12" fill="none" xmlns="http://www.w3.org/2000/svg">
<path d="M0.5 3.72183L3.72183 0.5H8.27817L11.5 3.72183V8.27818L8.27818 11.5H3.72183L0.5 8.27817V3.72183Z" fill="#B7313C" stroke="#B7313C"/>
<path d="M5 2.5C5 2.22386 5.22386 2 5.5 2H6.5C6.77614 2 7 2.22386 7 2.5V6.5C7 6.77614 6.77614 7 6.5 7H5.5C5.22386 7 5 6.77614 5 6.5V2.5Z" fill="white"/>
<path d="M5 8.5C5 8.22386 5.22386 8 5.5 8H6.5C6.77614 8 7 8.22386 7 8.5V9.5C7 9.77614 6.77614 10 6.5 10H5.5C5.22386 10 5 9.77614 5 9.5V8.5Z" fill="white"/>
</svg>
