<svg width="16" height="16" viewBox="0 0 16 16" fill="none" xmlns="http://www.w3.org/2000/svg">
<path d="M8 0.5L15.5 14.5H0.5L8 0.5Z" fill="#FFEF91" stroke="#674C06" stroke-linecap="square" stroke-linejoin="round"/>
<path d="M7 5.5C7 5.22386 7.22386 5 7.5 5H8.5C8.77614 5 9 5.22386 9 5.5V9.5C9 9.77614 8.77614 10 8.5 10H7.5C7.22386 10 7 9.77614 7 9.5V5.5Z" fill="#674C07"/>
<path d="M7 12C7 11.4477 7.44772 11 8 11V11C8.55228 11 9 11.4477 9 12V12C9 12.5523 8.55228 13 8 13V13C7.44772 13 7 12.5523 7 12V12Z" fill="#674C07"/>
</svg>
