<svg width="12" height="12" viewBox="0 0 12 12" fill="none" xmlns="http://www.w3.org/2000/svg">
<path d="M0.5 5.5C0.5 8.26142 2.73858 10.5 5.5 10.5C8.26142 10.5 10.5 8.26142 10.5 5.5C10.5 2.73858 8.26142 0.5 5.5 0.5C2.73858 0.5 0.5 2.73858 0.5 5.5Z" fill="#FFFFFE" stroke="#616160" stroke-linecap="round"/>
<path d="M5.01163 6.52151C5.01163 6.22357 5.05 5.98611 5.12674 5.80914C5.20349 5.63217 5.35465 5.4384 5.58023 5.22782C5.80814 5.01501 5.95233 4.8638 6.01279 4.77419C6.10581 4.63754 6.15233 4.4897 6.15233 4.33065C6.15233 4.12007 6.09767 3.9599 5.98837 3.85013C5.8814 3.73813 5.72326 3.68212 5.51395 3.68212C5.31395 3.68212 5.15233 3.73701 5.02907 3.84677C4.90814 3.9543 4.84767 4.10103 4.84767 4.28696H4C4.00465 3.89046 4.14419 3.57684 4.4186 3.3461C4.69535 3.11537 5.06047 3 5.51395 3C5.9814 3 6.34535 3.11425 6.60581 3.34274C6.8686 3.57124 7 3.89046 7 4.3004C7 4.66555 6.82326 5.02509 6.46977 5.37903L6.0407 5.78562C5.88721 5.95363 5.80814 6.19892 5.80349 6.52151H5.01163ZM4.95233 7.56653C4.95233 7.43436 4.99535 7.32796 5.0814 7.24731C5.16744 7.16443 5.28372 7.12298 5.43023 7.12298C5.57907 7.12298 5.69651 7.16555 5.78256 7.25067C5.8686 7.33356 5.91163 7.43884 5.91163 7.56653C5.91163 7.68974 5.86977 7.79279 5.78605 7.87567C5.70233 7.95856 5.58372 8 5.43023 8C5.27674 8 5.15814 7.95856 5.07442 7.87567C4.99302 7.79279 4.95233 7.68974 4.95233 7.56653Z" fill="#616160"/>
</svg>
