<svg width="16" height="16" viewBox="0 0 16 16" fill="none" xmlns="http://www.w3.org/2000/svg">
<path d="M0.5 8C0.5 12.1421 3.85786 15.5 8 15.5C12.1421 15.5 15.5 12.1421 15.5 8C15.5 3.85786 12.1421 0.5 8 0.5C3.85786 0.5 0.5 3.85786 0.5 8Z" fill="white" stroke="#278CDD" stroke-linecap="round"/>
<path fill-rule="evenodd" clip-rule="evenodd" d="M8.5 5.85714C8.77614 5.85714 9 6.081 9 6.35714V12.5C9 12.7761 8.77614 13 8.5 13H7.5C7.22386 13 7 12.7761 7 12.5V6.35714C7 6.081 7.22386 5.85714 7.5 5.85714H8.5Z" fill="#278CDD"/>
<path d="M7 4C7 3.44772 7.44772 3 8 3V3C8.55228 3 9 3.44772 9 4V4C9 4.55228 8.55228 5 8 5V5C7.44772 5 7 4.55228 7 4V4Z" fill="#278CDD"/>
</svg>
