<svg width="12" height="12" viewBox="0 0 12 12" fill="none" xmlns="http://www.w3.org/2000/svg">
<path d="M0.5 6C0.5 9.03757 2.96243 11.5 6 11.5C9.03757 11.5 11.5 9.03757 11.5 6C11.5 2.96243 9.03757 0.5 6 0.5C2.96243 0.5 0.5 2.96243 0.5 6Z" fill="white" stroke="#278CDD" stroke-linecap="round"/>
<path fill-rule="evenodd" clip-rule="evenodd" d="M6.5 5C6.77614 5 7 5.22386 7 5.5V9.5C7 9.77614 6.77614 10 6.5 10H5.5C5.22386 10 5 9.77614 5 9.5V5.5C5 5.22386 5.22386 5 5.5 5H6.5Z" fill="#278CDD"/>
<path d="M5 3C5 2.44772 5.44772 2 6 2V2C6.55228 2 7 2.44772 7 3V3C7 3.55228 6.55228 4 6 4V4C5.44772 4 5 3.55228 5 3V3Z" fill="#278CDD"/>
</svg>
