<svg width="12" height="12" viewBox="0 0 12 12" fill="none" xmlns="http://www.w3.org/2000/svg">
<path d="M6 1L11.5 11.5H0.5L6 1Z" fill="#FFEF91" stroke="#674C06" stroke-linecap="square" stroke-linejoin="round"/>
<path d="M5 5.5C5 5.22386 5.22386 5 5.5 5H6.5C6.77614 5 7 5.22386 7 5.5V7.5C7 7.77614 6.77614 8 6.5 8H5.5C5.22386 8 5 7.77614 5 7.5V5.5Z" fill="#674C07"/>
<path d="M5 9.5C5 9.22386 5.22386 9 5.5 9H6.5C6.77614 9 7 9.22386 7 9.5V9.5C7 9.77614 6.77614 10 6.5 10H5.5C5.22386 10 5 9.77614 5 9.5V9.5Z" fill="#674C07"/>
</svg>
