<?xml version="1.0" encoding="UTF-8" standalone="no"?>
<!DOCTYPE svg PUBLIC "-//W3C//DTD SVG 1.1//EN"
 "http://www.w3.org/Graphics/SVG/1.1/DTD/svg11.dtd">
<!-- Generated by graphviz version 2.43.0 (0)
 -->
<!-- Title: Core/Inc/top_board/FATFS/App Pages: 1 -->
<svg width="169pt" height="133pt"
 viewBox="0.00 0.00 168.50 133.00" xmlns="http://www.w3.org/2000/svg" xmlns:xlink="http://www.w3.org/1999/xlink">
<g id="graph0" class="graph" transform="scale(1 1) rotate(0) translate(4 129)">
<title>Core/Inc/top_board/FATFS/App</title>
<g id="clust1" class="cluster">
<title>clusterdir_61938db109a5c06030aba1627b22223a</title>
<g id="a_clust1"><a xlink:href="dir_61938db109a5c06030aba1627b22223a.html" target="_top" xlink:title="FATFS">
<polygon fill="#f3eef5" stroke="#7f7f7f" stroke-dasharray="5,2" points="8,-8 8,-117 72,-117 72,-8 8,-8"/>
<text text-anchor="middle" x="40" y="-105" font-family="Helvetica,sans-Serif" font-size="10.00">FATFS</text>
</a>
</g>
</g>
<!-- dir_52140215f730b37fb06ef3dd7c06e602 -->
<g id="node1" class="node">
<title>dir_52140215f730b37fb06ef3dd7c06e602</title>
<g id="a_node1"><a xlink:href="dir_52140215f730b37fb06ef3dd7c06e602.html" target="_top" xlink:title="Target">
<polygon fill="#c1accd" stroke="#404040" points="63.5,-35 16.5,-35 16.5,-16 63.5,-16 63.5,-35"/>
<text text-anchor="middle" x="40" y="-23" font-family="Helvetica,sans-Serif" font-size="10.00">Target</text>
</a>
</g>
</g>
<!-- dir_9e4399448c41a3b9540170a505aa7e01 -->
<g id="node2" class="node">
<title>dir_9e4399448c41a3b9540170a505aa7e01</title>
<g id="a_node2"><a xlink:href="dir_9e4399448c41a3b9540170a505aa7e01.html" target="_top" xlink:title="App">
<polygon fill="#f3eef5" stroke="#404040" stroke-width="2" points="60.5,-90 25.5,-90 25.5,-71 60.5,-71 60.5,-90"/>
<text text-anchor="middle" x="43" y="-78" font-family="Helvetica,sans-Serif" font-size="10.00">App</text>
</a>
</g>
</g>
<!-- dir_9e4399448c41a3b9540170a505aa7e01&#45;&gt;dir_52140215f730b37fb06ef3dd7c06e602 -->
<g id="edge1" class="edge">
<title>dir_9e4399448c41a3b9540170a505aa7e01&#45;&gt;dir_52140215f730b37fb06ef3dd7c06e602</title>
<path fill="none" stroke="#63b8ff" d="M42.5,-70.75C42.07,-63.03 41.42,-51.6 40.89,-42.28"/>
<polygon fill="#63b8ff" stroke="#63b8ff" points="40.49,-35.09 44.03,-41.9 40.68,-38.58 40.88,-42.08 40.88,-42.08 40.88,-42.08 40.68,-38.58 37.74,-42.26 40.49,-35.09 40.49,-35.09"/>
<g id="a_edge1&#45;headlabel"><a xlink:href="dir_000000_000065.html" target="_top" xlink:title="1">
<text text-anchor="middle" x="47.58" y="-45.8" font-family="Helvetica,sans-Serif" font-size="10.00" fill="#63b8ff">1</text>
</a>
</g>
</g>
<!-- dir_c74f58884f53378e3520ba2be2800046 -->
<g id="node3" class="node">
<title>dir_c74f58884f53378e3520ba2be2800046</title>
<g id="a_node3"><a xlink:href="dir_c74f58884f53378e3520ba2be2800046.html" target="_top" xlink:title="Middlewares">
<polygon fill="#f3eef5" stroke="red" stroke-dasharray="5,2" points="160.5,-35 81.5,-35 81.5,-16 160.5,-16 160.5,-35"/>
<text text-anchor="middle" x="121" y="-23" font-family="Helvetica,sans-Serif" font-size="10.00">Middlewares</text>
</a>
</g>
</g>
<!-- dir_9e4399448c41a3b9540170a505aa7e01&#45;&gt;dir_c74f58884f53378e3520ba2be2800046 -->
<g id="edge2" class="edge">
<title>dir_9e4399448c41a3b9540170a505aa7e01&#45;&gt;dir_c74f58884f53378e3520ba2be2800046</title>
<path fill="none" stroke="#63b8ff" d="M55.53,-70.98C68.19,-62.38 87.9,-48.99 102.39,-39.15"/>
<polygon fill="#63b8ff" stroke="#63b8ff" points="108.24,-35.17 104.22,-41.71 105.34,-37.14 102.45,-39.1 102.45,-39.1 102.45,-39.1 105.34,-37.14 100.68,-36.5 108.24,-35.17 108.24,-35.17"/>
<g id="a_edge2&#45;headlabel"><a xlink:href="dir_000000_000035.html" target="_top" xlink:title="2">
<text text-anchor="middle" x="100.56" y="-45.55" font-family="Helvetica,sans-Serif" font-size="10.00" fill="#63b8ff">2</text>
</a>
</g>
</g>
</g>
</svg>
