<?xml version="1.0" encoding="UTF-8" standalone="no"?>
<!DOCTYPE svg PUBLIC "-//W3C//DTD SVG 1.1//EN"
 "http://www.w3.org/Graphics/SVG/1.1/DTD/svg11.dtd">
<!-- Generated by graphviz version 2.43.0 (0)
 -->
<!-- Title: Core/Inc/dribbler_board/peripherals/dribbler.h Pages: 1 -->
<svg width="277pt" height="148pt"
 viewBox="0.00 0.00 277.00 148.00" xmlns="http://www.w3.org/2000/svg" xmlns:xlink="http://www.w3.org/1999/xlink">
<g id="graph0" class="graph" transform="scale(1 1) rotate(0) translate(4 144)">
<title>Core/Inc/dribbler_board/peripherals/dribbler.h</title>
<!-- Node1 -->
<g id="Node000001" class="node">
<title>Node1</title>
<g id="a_Node000001"><a xlink:title=" ">
<polygon fill="#999999" stroke="#666666" points="249.5,-140 61.5,-140 61.5,-110 249.5,-110 249.5,-140"/>
<text text-anchor="start" x="69.5" y="-128" font-family="Helvetica,sans-Serif" font-size="10.00">Core/Inc/dribbler_board/peripherals</text>
<text text-anchor="middle" x="155.5" y="-117" font-family="Helvetica,sans-Serif" font-size="10.00">/dribbler.h</text>
</a>
</g>
</g>
<!-- Node2 -->
<g id="Node000002" class="node">
<title>Node2</title>
<g id="a_Node000002"><a xlink:title=" ">
<polygon fill="#e0e0e0" stroke="#999999" points="63,-74 0,-74 0,-55 63,-55 63,-74"/>
<text text-anchor="middle" x="31.5" y="-62" font-family="Helvetica,sans-Serif" font-size="10.00">tim_util.h</text>
</a>
</g>
</g>
<!-- Node1&#45;&gt;Node2 -->
<g id="edge1_Node000001_Node000002" class="edge">
<title>Node1&#45;&gt;Node2</title>
<g id="a_edge1_Node000001_Node000002"><a xlink:title=" ">
<path fill="none" stroke="#63b8ff" d="M125.8,-109.99C104.56,-99.97 76.29,-86.63 56.27,-77.18"/>
<polygon fill="#63b8ff" stroke="#63b8ff" points="49.81,-74.14 57.49,-74.28 52.98,-75.63 56.14,-77.13 56.14,-77.13 56.14,-77.13 52.98,-75.63 54.8,-79.97 49.81,-74.14 49.81,-74.14"/>
</a>
</g>
</g>
<!-- Node3 -->
<g id="Node000003" class="node">
<title>Node3</title>
<g id="a_Node000003"><a xlink:href="AC__DC__util_8h.html" target="_top" xlink:title=" ">
<polygon fill="white" stroke="#666666" points="161.5,-74 81.5,-74 81.5,-55 161.5,-55 161.5,-74"/>
<text text-anchor="middle" x="121.5" y="-62" font-family="Helvetica,sans-Serif" font-size="10.00">AC_DC_util.h</text>
</a>
</g>
</g>
<!-- Node1&#45;&gt;Node3 -->
<g id="edge2_Node000001_Node000003" class="edge">
<title>Node1&#45;&gt;Node3</title>
<g id="a_edge2_Node000001_Node000003"><a xlink:title=" ">
<path fill="none" stroke="#63b8ff" d="M147.27,-109.84C142.08,-100.91 135.4,-89.41 130.13,-80.35"/>
<polygon fill="#63b8ff" stroke="#63b8ff" points="126.59,-74.27 132.84,-78.74 128.35,-77.29 130.11,-80.32 130.11,-80.32 130.11,-80.32 128.35,-77.29 127.39,-81.9 126.59,-74.27 126.59,-74.27"/>
</a>
</g>
</g>
<!-- Node5 -->
<g id="Node000005" class="node">
<title>Node5</title>
<g id="a_Node000005"><a xlink:title=" ">
<polygon fill="#e0e0e0" stroke="#999999" points="214.5,-19 164.5,-19 164.5,0 214.5,0 214.5,-19"/>
<text text-anchor="middle" x="189.5" y="-7" font-family="Helvetica,sans-Serif" font-size="10.00">main.h</text>
</a>
</g>
</g>
<!-- Node1&#45;&gt;Node5 -->
<g id="edge5_Node000001_Node000005" class="edge">
<title>Node1&#45;&gt;Node5</title>
<g id="a_edge5_Node000001_Node000005"><a xlink:title=" ">
<path fill="none" stroke="#63b8ff" d="M159.71,-109.99C162.71,-99.97 166.86,-86.15 170.5,-74 175.41,-57.6 181.03,-38.81 184.88,-25.95"/>
<polygon fill="#63b8ff" stroke="#63b8ff" points="186.92,-19.13 187.93,-26.74 185.92,-22.48 184.91,-25.83 184.91,-25.83 184.91,-25.83 185.92,-22.48 181.9,-24.93 186.92,-19.13 186.92,-19.13"/>
</a>
</g>
</g>
<!-- Node6 -->
<g id="Node000006" class="node">
<title>Node6</title>
<g id="a_Node000006"><a xlink:title=" ">
<polygon fill="#e0e0e0" stroke="#999999" points="269,-74 218,-74 218,-55 269,-55 269,-74"/>
<text text-anchor="middle" x="243.5" y="-62" font-family="Helvetica,sans-Serif" font-size="10.00">math.h</text>
</a>
</g>
</g>
<!-- Node1&#45;&gt;Node6 -->
<g id="edge6_Node000001_Node000006" class="edge">
<title>Node1&#45;&gt;Node6</title>
<g id="a_edge6_Node000001_Node000006"><a xlink:title=" ">
<path fill="none" stroke="#63b8ff" d="M176.8,-109.84C191.36,-100.16 210.48,-87.45 224.52,-78.12"/>
<polygon fill="#63b8ff" stroke="#63b8ff" points="230.57,-74.09 226.49,-80.59 227.66,-76.03 224.74,-77.97 224.74,-77.97 224.74,-77.97 227.66,-76.03 223,-75.35 230.57,-74.09 230.57,-74.09"/>
</a>
</g>
</g>
<!-- Node4 -->
<g id="Node000004" class="node">
<title>Node4</title>
<g id="a_Node000004"><a xlink:title=" ">
<polygon fill="#e0e0e0" stroke="#999999" points="146.5,-19 48.5,-19 48.5,0 146.5,0 146.5,-19"/>
<text text-anchor="middle" x="97.5" y="-7" font-family="Helvetica,sans-Serif" font-size="10.00">stm32f3xx_hal.h</text>
</a>
</g>
</g>
<!-- Node3&#45;&gt;Node4 -->
<g id="edge3_Node000003_Node000004" class="edge">
<title>Node3&#45;&gt;Node4</title>
<g id="a_edge3_Node000003_Node000004"><a xlink:title=" ">
<path fill="none" stroke="#63b8ff" d="M117.54,-54.75C113.97,-46.88 108.66,-35.14 104.4,-25.73"/>
<polygon fill="#63b8ff" stroke="#63b8ff" points="101.39,-19.09 107.15,-24.17 102.83,-22.28 104.28,-25.47 104.28,-25.47 104.28,-25.47 102.83,-22.28 101.41,-26.77 101.39,-19.09 101.39,-19.09"/>
</a>
</g>
</g>
<!-- Node3&#45;&gt;Node5 -->
<g id="edge4_Node000003_Node000005" class="edge">
<title>Node3&#45;&gt;Node5</title>
<g id="a_edge4_Node000003_Node000005"><a xlink:title=" ">
<path fill="none" stroke="#63b8ff" d="M132.43,-54.98C143.27,-46.54 160.03,-33.47 172.59,-23.68"/>
<polygon fill="#63b8ff" stroke="#63b8ff" points="178.38,-19.17 174.79,-25.96 175.62,-21.32 172.85,-23.47 172.85,-23.47 172.85,-23.47 175.62,-21.32 170.92,-20.99 178.38,-19.17 178.38,-19.17"/>
</a>
</g>
</g>
</g>
</svg>
