<?xml version="1.0" encoding="UTF-8" standalone="no"?>
<!DOCTYPE svg PUBLIC "-//W3C//DTD SVG 1.1//EN"
 "http://www.w3.org/Graphics/SVG/1.1/DTD/svg11.dtd">
<!-- Generated by graphviz version 2.43.0 (0)
 -->
<!-- Title: Core/Inc/top_board/oled/self_tests/dribbler_test.h Pages: 1 -->
<!--zoomable 258 -->

<svg id="main" version="1.1" xmlns="http://www.w3.org/2000/svg" xmlns:xlink="http://www.w3.org/1999/xlink" xml:space="preserve" onload="init(evt)">
<style type="text/css"><![CDATA[
.node, .edge {opacity: 0.7;}
.node.selected, .edge.selected {opacity: 1;}
.edge:hover path { stroke: red; }
.edge:hover polygon { stroke: red; fill: red; }
]]></style>

<defs>
  <circle id="rim" cx="0" cy="0" r="7"/>
  <circle id="rim2" cx="0" cy="0" r="3.5"/>
  <g id="zoomPlus">
    <use xlink:href="#rim" fill="#404040"><set attributeName="fill" to="#808080" begin="zoomplus.mouseover" end="zoomplus.mouseout"/></use>
    <path d="M-4,0h8M0,-4v8" fill="none" stroke="white" stroke-width="1.5" pointer-events="none"/>
  </g>
  <g id="zoomMin">
    <use xlink:href="#rim" fill="#404040"><set attributeName="fill" to="#808080" begin="zoomminus.mouseover" end="zoomminus.mouseout"/></use>
    <path d="M-4,0h8" fill="none" stroke="white" stroke-width="1.5" pointer-events="none"/>
  </g>
  <g id="arrowUp" transform="translate(30 24)">
    <use xlink:href="#rim"/>
    <path pointer-events="none" fill="none" stroke="white" stroke-width="1.5" d="M0,-3.0v7 M-2.5,-0.5L0,-3.0L2.5,-0.5"/>
  </g>
  <g id="arrowRight" transform="rotate(90) translate(36 -43)">
    <use xlink:href="#rim"/>
    <path pointer-events="none" fill="none" stroke="white" stroke-width="1.5" d="M0,-3.0v7 M-2.5,-0.5L0,-3.0L2.5,-0.5"/>
  </g>
  <g id="arrowDown" transform="rotate(180) translate(-30 -48)">
    <use xlink:href="#rim"/>
    <path pointer-events="none" fill="none" stroke="white" stroke-width="1.5" d="M0,-3.0v7 M-2.5,-0.5L0,-3.0L2.5,-0.5"/>
  </g>
  <g id="arrowLeft" transform="rotate(270) translate(-36 17)">
    <use xlink:href="#rim"/>
    <path pointer-events="none" fill="none" stroke="white" stroke-width="1.5" d="M0,-3.0v7 M-2.5,-0.5L0,-3.0L2.5,-0.5"/>
  </g>
  <g id="resetDef">
    <use xlink:href="#rim2" fill="#404040"><set attributeName="fill" to="#808080" begin="reset.mouseover" end="reset.mouseout"/></use>
  </g>
</defs>
<script type="application/ecmascript">
var viewWidth = 2084;
var viewHeight = 258;
var sectionId = 'dynsection-0';
</script>
<script type="application/ecmascript" xlink:href="svg.min.js"/>
<svg id="graph" class="graph">
<g id="viewport">
<title>Core/Inc/top_board/oled/self_tests/dribbler_test.h</title>
<!-- Node1 -->
<g id="Node000001" class="node">
<title>Node1</title>
<g id="a_Node000001"><a xlink:title=" ">
<polygon fill="#999999" stroke="#666666" points="1577,-250 1395,-250 1395,-220 1577,-220 1577,-250"/>
<text text-anchor="start" x="1403" y="-238" font-family="Helvetica,sans-Serif" font-size="10.00">Core/Inc/top_board/oled/self_tests</text>
<text text-anchor="middle" x="1486" y="-227" font-family="Helvetica,sans-Serif" font-size="10.00">/dribbler_test.h</text>
</a>
</g>
</g>
<!-- Node2 -->
<g id="Node000002" class="node">
<title>Node2</title>
<g id="a_Node000002"><a xlink:href="robot_8h.html" target="_top" xlink:title=" ">
<polygon fill="#fff0f0" stroke="red" points="980.5,-184 929.5,-184 929.5,-165 980.5,-165 980.5,-184"/>
<text text-anchor="middle" x="955" y="-172" font-family="Helvetica,sans-Serif" font-size="10.00">robot.h</text>
</a>
</g>
</g>
<!-- Node1&#45;&gt;Node2 -->
<g id="edge1_Node000001_Node000002" class="edge">
<title>Node1&#45;&gt;Node2</title>
<g id="a_edge1_Node000001_Node000002"><a xlink:title=" ">
<path fill="none" stroke="#63b8ff" d="M1394.72,-223.94C1274.21,-210.67 1067.98,-187.95 988.03,-179.14"/>
<polygon fill="#63b8ff" stroke="#63b8ff" points="980.69,-178.33 987.99,-175.97 984.17,-178.71 987.65,-179.1 987.65,-179.1 987.65,-179.1 984.17,-178.71 987.3,-182.23 980.69,-178.33 980.69,-178.33"/>
</a>
</g>
</g>
<!-- Node20 -->
<g id="Node000020" class="node">
<title>Node20</title>
<g id="a_Node000020"><a xlink:href="OLED__driver_8h.html" target="_top" xlink:title=" ">
<polygon fill="#fff0f0" stroke="red" points="191.5,-74 106.5,-74 106.5,-55 191.5,-55 191.5,-74"/>
<text text-anchor="middle" x="149" y="-62" font-family="Helvetica,sans-Serif" font-size="10.00">OLED_driver.h</text>
</a>
</g>
</g>
<!-- Node1&#45;&gt;Node20 -->
<g id="edge25_Node000001_Node000020" class="edge">
<title>Node1&#45;&gt;Node20</title>
<g id="a_edge25_Node000001_Node000020"><a xlink:title=" ">
<path fill="none" stroke="#63b8ff" d="M1577.04,-228.76C1757.61,-216.75 2137.82,-182.48 2067,-110 2033.38,-75.59 497.88,-67.04 199.08,-65.71"/>
<polygon fill="#63b8ff" stroke="#63b8ff" points="191.84,-65.67 198.86,-62.55 195.34,-65.69 198.84,-65.7 198.84,-65.7 198.84,-65.7 195.34,-65.69 198.83,-68.85 191.84,-65.67 191.84,-65.67"/>
</a>
</g>
</g>
<!-- Node3 -->
<g id="Node000003" class="node">
<title>Node3</title>
<g id="a_Node000003"><a xlink:title=" ">
<polygon fill="#e0e0e0" stroke="#999999" points="2058,-129 2002,-129 2002,-110 2058,-110 2058,-129"/>
<text text-anchor="middle" x="2030" y="-117" font-family="Helvetica,sans-Serif" font-size="10.00">unistd.h</text>
</a>
</g>
</g>
<!-- Node2&#45;&gt;Node3 -->
<g id="edge2_Node000002_Node000003" class="edge">
<title>Node2&#45;&gt;Node3</title>
<g id="a_edge2_Node000002_Node000003"><a xlink:title=" ">
<path fill="none" stroke="#63b8ff" d="M980.68,-173.87C1097.33,-175.24 1588.86,-177.68 1988,-129 1990.08,-128.75 1992.2,-128.45 1994.35,-128.11"/>
<polygon fill="#63b8ff" stroke="#63b8ff" points="2001.63,-126.87 1995.26,-131.15 1998.18,-127.46 1994.73,-128.05 1994.73,-128.05 1994.73,-128.05 1998.18,-127.46 1994.2,-124.94 2001.63,-126.87 2001.63,-126.87"/>
</a>
</g>
</g>
<!-- Node4 -->
<g id="Node000004" class="node">
<title>Node4</title>
<g id="a_Node000004"><a xlink:href="top__board_2main_8h.html" target="_top" xlink:title=": Header for main.c file. This file contains the common defines of the application.">
<polygon fill="#fff0f0" stroke="red" points="50,-129 0,-129 0,-110 50,-110 50,-129"/>
<text text-anchor="middle" x="25" y="-117" font-family="Helvetica,sans-Serif" font-size="10.00">main.h</text>
</a>
</g>
</g>
<!-- Node2&#45;&gt;Node4 -->
<g id="edge3_Node000002_Node000004" class="edge">
<title>Node2&#45;&gt;Node4</title>
<g id="a_edge3_Node000002_Node000004"><a xlink:title=" ">
<path fill="none" stroke="#63b8ff" d="M929.15,-173.74C821.99,-174.5 403.9,-174.64 57.54,-129.26"/>
<polygon fill="#63b8ff" stroke="#63b8ff" points="50.4,-128.32 57.76,-126.11 53.87,-128.78 57.34,-129.24 57.34,-129.24 57.34,-129.24 53.87,-128.78 56.93,-132.36 50.4,-128.32 50.4,-128.32"/>
</a>
</g>
</g>
<!-- Node6 -->
<g id="Node000006" class="node">
<title>Node6</title>
<g id="a_Node000006"><a xlink:href="drivers_8h.html" target="_top" xlink:title=" ">
<polygon fill="#fff0f0" stroke="red" points="165.5,-129 106.5,-129 106.5,-110 165.5,-110 165.5,-129"/>
<text text-anchor="middle" x="136" y="-117" font-family="Helvetica,sans-Serif" font-size="10.00">drivers.h</text>
</a>
</g>
</g>
<!-- Node2&#45;&gt;Node6 -->
<g id="edge5_Node000002_Node000006" class="edge">
<title>Node2&#45;&gt;Node6</title>
<g id="a_edge5_Node000002_Node000006"><a xlink:title=" ">
<path fill="none" stroke="#63b8ff" d="M929.27,-173.5C830.9,-173.19 469.31,-169.21 175,-129 174.24,-128.9 173.48,-128.79 172.71,-128.67"/>
<polygon fill="#63b8ff" stroke="#63b8ff" points="165.72,-127.48 173.15,-125.55 169.17,-128.07 172.63,-128.66 172.63,-128.66 172.63,-128.66 169.17,-128.07 172.1,-131.76 165.72,-127.48 165.72,-127.48"/>
</a>
</g>
</g>
<!-- Node23 -->
<g id="Node000023" class="node">
<title>Node23</title>
<g id="a_Node000023"><a xlink:href="pages_8h.html" target="_top" xlink:title=" ">
<polygon fill="#fff0f0" stroke="red" points="176.5,-19 121.5,-19 121.5,0 176.5,0 176.5,-19"/>
<text text-anchor="middle" x="149" y="-7" font-family="Helvetica,sans-Serif" font-size="10.00">pages.h</text>
</a>
</g>
</g>
<!-- Node2&#45;&gt;Node23 -->
<g id="edge11_Node000002_Node000023" class="edge">
<title>Node2&#45;&gt;Node23</title>
<g id="a_edge11_Node000002_Node000023"><a xlink:title=" ">
<path fill="none" stroke="#63b8ff" d="M929.39,-173.15C789.95,-171.13 127.36,-159.93 98,-129 75.36,-105.15 84.39,-84.94 98,-55 104.07,-41.64 116.36,-30.73 127.35,-23.05"/>
<polygon fill="#63b8ff" stroke="#63b8ff" points="133.27,-19.12 129.18,-25.62 130.35,-21.06 127.44,-22.99 127.44,-22.99 127.44,-22.99 130.35,-21.06 125.7,-20.37 133.27,-19.12 133.27,-19.12"/>
</a>
</g>
</g>
<!-- Node45 -->
<g id="Node000045" class="node">
<title>Node45</title>
<g id="a_Node000045"><a xlink:href="rem_8h.html" target="_top" xlink:title=" ">
<polygon fill="#fff0f0" stroke="red" points="228.5,-129 183.5,-129 183.5,-110 228.5,-110 228.5,-129"/>
<text text-anchor="middle" x="206" y="-117" font-family="Helvetica,sans-Serif" font-size="10.00">rem.h</text>
</a>
</g>
</g>
<!-- Node2&#45;&gt;Node45 -->
<g id="edge12_Node000002_Node000045" class="edge">
<title>Node2&#45;&gt;Node45</title>
<g id="a_edge12_Node000002_Node000045"><a xlink:title=" ">
<path fill="none" stroke="#63b8ff" d="M929.4,-173.73C836.09,-174.19 505.76,-172.43 238,-129 237.23,-128.88 236.46,-128.74 235.68,-128.6"/>
<polygon fill="#63b8ff" stroke="#63b8ff" points="228.61,-127.1 236.11,-125.47 232.03,-127.82 235.45,-128.55 235.45,-128.55 235.45,-128.55 232.03,-127.82 234.8,-131.63 228.61,-127.1 228.61,-127.1"/>
</a>
</g>
</g>
<!-- Node46 -->
<g id="Node000046" class="node">
<title>Node46</title>
<g id="a_Node000046"><a xlink:href="REM__Packet_8h.html" target="_top" xlink:title=" ">
<polygon fill="#fff0f0" stroke="red" points="331,-129 247,-129 247,-110 331,-110 331,-129"/>
<text text-anchor="middle" x="289" y="-117" font-family="Helvetica,sans-Serif" font-size="10.00">REM_Packet.h</text>
</a>
</g>
</g>
<!-- Node2&#45;&gt;Node46 -->
<g id="edge13_Node000002_Node000046" class="edge">
<title>Node2&#45;&gt;Node46</title>
<g id="a_edge13_Node000002_Node000046"><a xlink:title=" ">
<path fill="none" stroke="#63b8ff" d="M929.48,-172.47C845.24,-168.9 568.41,-155.77 341,-129 340.11,-128.89 339.2,-128.78 338.29,-128.67"/>
<polygon fill="#63b8ff" stroke="#63b8ff" points="331.24,-127.73 338.6,-125.53 334.71,-128.19 338.18,-128.66 338.18,-128.66 338.18,-128.66 334.71,-128.19 337.76,-131.78 331.24,-127.73 331.24,-127.73"/>
</a>
</g>
</g>
<!-- Node47 -->
<g id="Node000047" class="node">
<title>Node47</title>
<g id="a_Node000047"><a xlink:href="REM__RobotCommand_8h.html" target="_top" xlink:title=" ">
<polygon fill="#fff0f0" stroke="red" points="480.5,-129 349.5,-129 349.5,-110 480.5,-110 480.5,-129"/>
<text text-anchor="middle" x="415" y="-117" font-family="Helvetica,sans-Serif" font-size="10.00">REM_RobotCommand.h</text>
</a>
</g>
</g>
<!-- Node2&#45;&gt;Node47 -->
<g id="edge14_Node000002_Node000047" class="edge">
<title>Node2&#45;&gt;Node47</title>
<g id="a_edge14_Node000002_Node000047"><a xlink:title=" ">
<path fill="none" stroke="#63b8ff" d="M929.28,-171.2C858.91,-164.86 657.37,-146.49 490,-129 489.34,-128.93 488.69,-128.86 488.02,-128.79"/>
<polygon fill="#63b8ff" stroke="#63b8ff" points="480.84,-128.03 488.14,-125.64 484.32,-128.4 487.8,-128.77 487.8,-128.77 487.8,-128.77 484.32,-128.4 487.47,-131.9 480.84,-128.03 480.84,-128.03"/>
</a>
</g>
</g>
<!-- Node48 -->
<g id="Node000048" class="node">
<title>Node48</title>
<g id="a_Node000048"><a xlink:href="REM__RobotCommandTesting_8h.html" target="_top" xlink:title=" ">
<polygon fill="#fff0f0" stroke="red" points="665,-129 499,-129 499,-110 665,-110 665,-129"/>
<text text-anchor="middle" x="582" y="-117" font-family="Helvetica,sans-Serif" font-size="10.00">REM_RobotCommandTesting.h</text>
</a>
</g>
</g>
<!-- Node2&#45;&gt;Node48 -->
<g id="edge15_Node000002_Node000048" class="edge">
<title>Node2&#45;&gt;Node48</title>
<g id="a_edge15_Node000002_Node000048"><a xlink:title=" ">
<path fill="none" stroke="#63b8ff" d="M929.36,-169.86C872.21,-161.74 732.81,-141.93 649.01,-130.02"/>
<polygon fill="#63b8ff" stroke="#63b8ff" points="642.07,-129.04 649.45,-126.9 645.54,-129.53 649,-130.02 649,-130.02 649,-130.02 645.54,-129.53 648.56,-133.14 642.07,-129.04 642.07,-129.04"/>
</a>
</g>
</g>
<!-- Node49 -->
<g id="Node000049" class="node">
<title>Node49</title>
<g id="a_Node000049"><a xlink:href="REM__RobotFeedback_8h.html" target="_top" xlink:title=" ">
<polygon fill="#fff0f0" stroke="red" points="811,-129 683,-129 683,-110 811,-110 811,-129"/>
<text text-anchor="middle" x="747" y="-117" font-family="Helvetica,sans-Serif" font-size="10.00">REM_RobotFeedback.h</text>
</a>
</g>
</g>
<!-- Node2&#45;&gt;Node49 -->
<g id="edge16_Node000002_Node000049" class="edge">
<title>Node2&#45;&gt;Node49</title>
<g id="a_edge16_Node000002_Node000049"><a xlink:title=" ">
<path fill="none" stroke="#63b8ff" d="M929.5,-167C894.04,-157.97 829.5,-141.52 787.44,-130.8"/>
<polygon fill="#63b8ff" stroke="#63b8ff" points="780.64,-129.07 788.2,-127.75 784.03,-129.93 787.42,-130.8 787.42,-130.8 787.42,-130.8 784.03,-129.93 786.64,-133.85 780.64,-129.07 780.64,-129.07"/>
</a>
</g>
</g>
<!-- Node50 -->
<g id="Node000050" class="node">
<title>Node50</title>
<g id="a_Node000050"><a xlink:href="REM__RobotBuzzer_8h.html" target="_top" xlink:title=" ">
<polygon fill="#fff0f0" stroke="red" points="942.5,-129 829.5,-129 829.5,-110 942.5,-110 942.5,-129"/>
<text text-anchor="middle" x="886" y="-117" font-family="Helvetica,sans-Serif" font-size="10.00">REM_RobotBuzzer.h</text>
</a>
</g>
</g>
<!-- Node2&#45;&gt;Node50 -->
<g id="edge17_Node000002_Node000050" class="edge">
<title>Node2&#45;&gt;Node50</title>
<g id="a_edge17_Node000002_Node000050"><a xlink:title=" ">
<path fill="none" stroke="#63b8ff" d="M943.91,-164.98C932.91,-156.54 915.9,-143.47 903.16,-133.68"/>
<polygon fill="#63b8ff" stroke="#63b8ff" points="897.29,-129.17 904.76,-130.94 900.06,-131.3 902.84,-133.43 902.84,-133.43 902.84,-133.43 900.06,-131.3 900.92,-135.93 897.29,-129.17 897.29,-129.17"/>
</a>
</g>
</g>
<!-- Node51 -->
<g id="Node000051" class="node">
<title>Node51</title>
<g id="a_Node000051"><a xlink:href="REM__RobotStateInfo_8h.html" target="_top" xlink:title=" ">
<polygon fill="#fff0f0" stroke="red" points="1085.5,-129 960.5,-129 960.5,-110 1085.5,-110 1085.5,-129"/>
<text text-anchor="middle" x="1023" y="-117" font-family="Helvetica,sans-Serif" font-size="10.00">REM_RobotStateInfo.h</text>
</a>
</g>
</g>
<!-- Node2&#45;&gt;Node51 -->
<g id="edge18_Node000002_Node000051" class="edge">
<title>Node2&#45;&gt;Node51</title>
<g id="a_edge18_Node000002_Node000051"><a xlink:title=" ">
<path fill="none" stroke="#63b8ff" d="M965.93,-164.98C976.77,-156.54 993.53,-143.47 1006.09,-133.68"/>
<polygon fill="#63b8ff" stroke="#63b8ff" points="1011.88,-129.17 1008.29,-135.96 1009.12,-131.32 1006.35,-133.47 1006.35,-133.47 1006.35,-133.47 1009.12,-131.32 1004.42,-130.99 1011.88,-129.17 1011.88,-129.17"/>
</a>
</g>
</g>
<!-- Node52 -->
<g id="Node000052" class="node">
<title>Node52</title>
<g id="a_Node000052"><a xlink:href="REM__RobotGetPIDGains_8h.html" target="_top" xlink:title=" ">
<polygon fill="#fff0f0" stroke="red" points="1246.5,-129 1103.5,-129 1103.5,-110 1246.5,-110 1246.5,-129"/>
<text text-anchor="middle" x="1175" y="-117" font-family="Helvetica,sans-Serif" font-size="10.00">REM_RobotGetPIDGains.h</text>
</a>
</g>
</g>
<!-- Node2&#45;&gt;Node52 -->
<g id="edge19_Node000002_Node000052" class="edge">
<title>Node2&#45;&gt;Node52</title>
<g id="a_edge19_Node000002_Node000052"><a xlink:title=" ">
<path fill="none" stroke="#63b8ff" d="M980.67,-167.32C1018,-158.32 1087.73,-141.53 1132.72,-130.69"/>
<polygon fill="#63b8ff" stroke="#63b8ff" points="1139.72,-129 1133.65,-133.7 1136.31,-129.82 1132.91,-130.64 1132.91,-130.64 1132.91,-130.64 1136.31,-129.82 1132.17,-127.58 1139.72,-129 1139.72,-129"/>
</a>
</g>
</g>
<!-- Node13 -->
<g id="Node000013" class="node">
<title>Node13</title>
<g id="a_Node000013"><a xlink:href="REM__RobotSetPIDGains_8h.html" target="_top" xlink:title=" ">
<polygon fill="#fff0f0" stroke="red" points="1405.5,-129 1264.5,-129 1264.5,-110 1405.5,-110 1405.5,-129"/>
<text text-anchor="middle" x="1335" y="-117" font-family="Helvetica,sans-Serif" font-size="10.00">REM_RobotSetPIDGains.h</text>
</a>
</g>
</g>
<!-- Node2&#45;&gt;Node13 -->
<g id="edge20_Node000002_Node000013" class="edge">
<title>Node2&#45;&gt;Node13</title>
<g id="a_edge20_Node000002_Node000013"><a xlink:title=" ">
<path fill="none" stroke="#63b8ff" d="M980.52,-169.94C1038.39,-161.87 1181.15,-141.96 1266.81,-130.01"/>
<polygon fill="#63b8ff" stroke="#63b8ff" points="1273.9,-129.02 1267.4,-133.11 1270.43,-129.51 1266.96,-129.99 1266.96,-129.99 1266.96,-129.99 1270.43,-129.51 1266.53,-126.87 1273.9,-129.02 1273.9,-129.02"/>
</a>
</g>
</g>
<!-- Node53 -->
<g id="Node000053" class="node">
<title>Node53</title>
<g id="a_Node000053"><a xlink:href="REM__RobotPIDGains_8h.html" target="_top" xlink:title=" ">
<polygon fill="#fff0f0" stroke="red" points="1548.5,-129 1423.5,-129 1423.5,-110 1548.5,-110 1548.5,-129"/>
<text text-anchor="middle" x="1486" y="-117" font-family="Helvetica,sans-Serif" font-size="10.00">REM_RobotPIDGains.h</text>
</a>
</g>
</g>
<!-- Node2&#45;&gt;Node53 -->
<g id="edge21_Node000002_Node000053" class="edge">
<title>Node2&#45;&gt;Node53</title>
<g id="a_edge21_Node000002_Node000053"><a xlink:title=" ">
<path fill="none" stroke="#63b8ff" d="M980.71,-171.22C1050.55,-164.98 1249.68,-146.89 1415,-129 1415.42,-128.95 1415.85,-128.91 1416.28,-128.86"/>
<polygon fill="#63b8ff" stroke="#63b8ff" points="1423.29,-128.09 1416.68,-131.99 1419.81,-128.47 1416.33,-128.86 1416.33,-128.86 1416.33,-128.86 1419.81,-128.47 1415.99,-125.72 1423.29,-128.09 1423.29,-128.09"/>
</a>
</g>
</g>
<!-- Node54 -->
<g id="Node000054" class="node">
<title>Node54</title>
<g id="a_Node000054"><a xlink:href="REM__SX1280Filler_8h.html" target="_top" xlink:title=" ">
<polygon fill="#fff0f0" stroke="red" points="1679.5,-129 1566.5,-129 1566.5,-110 1679.5,-110 1679.5,-129"/>
<text text-anchor="middle" x="1623" y="-117" font-family="Helvetica,sans-Serif" font-size="10.00">REM_SX1280Filler.h</text>
</a>
</g>
</g>
<!-- Node2&#45;&gt;Node54 -->
<g id="edge22_Node000002_Node000054" class="edge">
<title>Node2&#45;&gt;Node54</title>
<g id="a_edge22_Node000002_Node000054"><a xlink:title=" ">
<path fill="none" stroke="#63b8ff" d="M980.61,-172.13C1063.93,-167.55 1334.78,-151.81 1558,-129 1558.42,-128.96 1558.85,-128.91 1559.28,-128.87"/>
<polygon fill="#63b8ff" stroke="#63b8ff" points="1566.3,-128.11 1559.68,-131.99 1562.82,-128.48 1559.34,-128.86 1559.34,-128.86 1559.34,-128.86 1562.82,-128.48 1559,-125.73 1566.3,-128.11 1566.3,-128.11"/>
</a>
</g>
</g>
<!-- Node55 -->
<g id="Node000055" class="node">
<title>Node55</title>
<g id="a_Node000055"><a xlink:href="REM__RobotMusicCommand_8h.html" target="_top" xlink:title=" ">
<polygon fill="#fff0f0" stroke="red" points="1858,-129 1698,-129 1698,-110 1858,-110 1858,-129"/>
<text text-anchor="middle" x="1778" y="-117" font-family="Helvetica,sans-Serif" font-size="10.00">REM_RobotMusicCommand.h</text>
</a>
</g>
</g>
<!-- Node2&#45;&gt;Node55 -->
<g id="edge23_Node000002_Node000055" class="edge">
<title>Node2&#45;&gt;Node55</title>
<g id="a_edge23_Node000002_Node000055"><a xlink:title=" ">
<path fill="none" stroke="#63b8ff" d="M980.7,-172.27C1075.13,-167.66 1411.85,-150.63 1689,-129 1689.64,-128.95 1690.29,-128.9 1690.94,-128.85"/>
<polygon fill="#63b8ff" stroke="#63b8ff" points="1697.96,-128.28 1691.24,-131.98 1694.47,-128.56 1690.98,-128.84 1690.98,-128.84 1690.98,-128.84 1694.47,-128.56 1690.73,-125.7 1697.96,-128.28 1697.96,-128.28"/>
</a>
</g>
</g>
<!-- Node56 -->
<g id="Node000056" class="node">
<title>Node56</title>
<g id="a_Node000056"><a xlink:href="REM__Log_8h.html" target="_top" xlink:title=" ">
<polygon fill="#fff0f0" stroke="red" points="1946,-129 1876,-129 1876,-110 1946,-110 1946,-129"/>
<text text-anchor="middle" x="1911" y="-117" font-family="Helvetica,sans-Serif" font-size="10.00">REM_Log.h</text>
</a>
</g>
</g>
<!-- Node2&#45;&gt;Node56 -->
<g id="edge24_Node000002_Node000056" class="edge">
<title>Node2&#45;&gt;Node56</title>
<g id="a_edge24_Node000002_Node000056"><a xlink:title=" ">
<path fill="none" stroke="#63b8ff" d="M980.86,-173.58C1089.32,-173.63 1518,-171.01 1867,-129 1867.52,-128.94 1868.05,-128.87 1868.57,-128.8"/>
<polygon fill="#63b8ff" stroke="#63b8ff" points="1875.53,-127.8 1869.05,-131.92 1872.06,-128.3 1868.6,-128.8 1868.6,-128.8 1868.6,-128.8 1872.06,-128.3 1868.15,-125.68 1875.53,-127.8 1875.53,-127.8"/>
</a>
</g>
</g>
<!-- Node4&#45;&gt;Node2 -->
<g id="edge4_Node000004_Node000002" class="edge">
<title>Node4&#45;&gt;Node2</title>
<g id="a_edge4_Node000004_Node000002"><a xlink:title=" ">
<path fill="none" stroke="#63b8ff" d="M50.34,-124.84C57.78,-126.41 65.72,-128.03 73,-129 402.38,-172.82 805.46,-174.45 922.08,-173.82"/>
<polygon fill="#63b8ff" stroke="#63b8ff" points="929.34,-173.78 922.36,-176.97 925.84,-173.8 922.34,-173.82 922.34,-173.82 922.34,-173.82 925.84,-173.8 922.32,-170.67 929.34,-173.78 929.34,-173.78"/>
</a>
</g>
</g>
<!-- Node6&#45;&gt;Node20 -->
<g id="edge6_Node000006_Node000020" class="edge">
<title>Node6&#45;&gt;Node20</title>
<g id="a_edge6_Node000006_Node000020"><a xlink:title=" ">
<path fill="none" stroke="#63b8ff" d="M132.98,-109.75C133.22,-101.88 135.76,-90.14 139.09,-80.73"/>
<polygon fill="#63b8ff" stroke="#63b8ff" points="141.76,-74.09 142.07,-81.76 140.46,-77.34 139.15,-80.58 139.15,-80.58 139.15,-80.58 140.46,-77.34 136.23,-79.41 141.76,-74.09 141.76,-74.09"/>
</a>
</g>
</g>
<!-- Node20&#45;&gt;Node2 -->
<g id="edge10_Node000020_Node000002" class="edge">
<title>Node20&#45;&gt;Node2</title>
<g id="a_edge10_Node000020_Node000002"><a xlink:title=" ">
<path fill="none" stroke="#63b8ff" d="M191.93,-65.74C462.65,-67.33 1923.21,-77.41 1955,-110 1960.9,-116.04 1960.84,-122.9 1955,-129 1920.82,-164.73 1156.88,-172.1 987.89,-173.3"/>
<polygon fill="#63b8ff" stroke="#63b8ff" points="980.76,-173.35 987.73,-170.15 984.26,-173.32 987.76,-173.3 987.76,-173.3 987.76,-173.3 984.26,-173.32 987.78,-176.45 980.76,-173.35 980.76,-173.35"/>
</a>
</g>
</g>
<!-- Node20&#45;&gt;Node6 -->
<g id="edge7_Node000020_Node000006" class="edge">
<title>Node20&#45;&gt;Node6</title>
<g id="a_edge7_Node000020_Node000006"><a xlink:title=" ">
<path fill="none" stroke="#63b8ff" d="M152.02,-74.09C151.82,-81.91 149.3,-93.64 145.98,-103.08"/>
<polygon fill="#63b8ff" stroke="#63b8ff" points="143.31,-109.75 142.99,-102.08 144.61,-106.5 145.91,-103.25 145.91,-103.25 145.91,-103.25 144.61,-106.5 148.84,-104.42 143.31,-109.75 143.31,-109.75"/>
</a>
</g>
</g>
<!-- Node20&#45;&gt;Node23 -->
<g id="edge8_Node000020_Node000023" class="edge">
<title>Node20&#45;&gt;Node23</title>
<g id="a_edge8_Node000020_Node000023"><a xlink:title=" ">
<path fill="none" stroke="#63b8ff" d="M143.83,-54.75C142.17,-47.03 141.82,-35.6 142.77,-26.28"/>
<polygon fill="#63b8ff" stroke="#63b8ff" points="143.87,-19.09 145.92,-26.49 143.34,-22.55 142.81,-26.01 142.81,-26.01 142.81,-26.01 143.34,-22.55 139.7,-25.53 143.87,-19.09 143.87,-19.09"/>
</a>
</g>
</g>
<!-- Node23&#45;&gt;Node20 -->
<g id="edge9_Node000023_Node000020" class="edge">
<title>Node23&#45;&gt;Node20</title>
<g id="a_edge9_Node000023_Node000020"><a xlink:title=" ">
<path fill="none" stroke="#63b8ff" d="M154.13,-19.09C155.82,-26.83 156.19,-38.41 155.22,-47.8"/>
<polygon fill="#63b8ff" stroke="#63b8ff" points="154.17,-54.75 152.11,-47.35 154.69,-51.29 155.22,-47.83 155.22,-47.83 155.22,-47.83 154.69,-51.29 158.33,-48.3 154.17,-54.75 154.17,-54.75"/>
</a>
</g>
</g>
</g>
</svg>

<g id="navigator" transform="translate(0 0)" fill="#404254">
  <rect fill="#f2f5e9" fill-opacity="0.5" stroke="#606060" stroke-width=".5" x="0" y="0" width="60" height="60"/>
  <use id="zoomplus" xlink:href="#zoomPlus" x="17" y="9" onmousedown="handleZoom(evt,'in')"/>
  <use id="zoomminus" xlink:href="#zoomMin" x="42" y="9" onmousedown="handleZoom(evt,'out')"/>
  <use id="reset" xlink:href="#resetDef" x="30" y="36" onmousedown="handleReset()"/>
   <use id="arrowup" xlink:href="#arrowUp" x="0" y="0" onmousedown="handlePan(0,-1)"/>
  <use id="arrowright" xlink:href="#arrowRight" x="0" y="0" onmousedown="handlePan(1,0)"/>
  <use id="arrowdown" xlink:href="#arrowDown" x="0" y="0" onmousedown="handlePan(0,1)"/>
  <use id="arrowleft" xlink:href="#arrowLeft" x="0" y="0" onmousedown="handlePan(-1,0)"/>
</g>
<svg viewBox="0 0 15 15" width="100%" height="30px" preserveAspectRatio="xMaxYMin meet">
 <g id="arrow_out" transform="scale(0.3 0.3)">
  <a xlink:href="dribbler__test_8h__incl_org.svg" target="_base">
   <rect id="button" ry="5" rx="5" y="6" x="6" height="38" width="38"
        fill="#f2f5e9" fill-opacity="0.5" stroke="#606060" stroke-width="1.0"/>
   <path id="arrow"
     d="M 11.500037,31.436501 C 11.940474,20.09759 22.043105,11.32322 32.158766,21.979434 L 37.068811,17.246167 C 37.068811,17.246167 37.088388,32 37.088388,32 L 22.160133,31.978069 C 22.160133,31.978069 26.997745,27.140456 26.997745,27.140456 C 18.528582,18.264221 13.291696,25.230495 11.500037,31.436501 z"
     style="fill:#404040;"/>
  </a>
 </g>
</svg>

<style type='text/css'>
<![CDATA[
[data-mouse-over-selected='false'] { opacity: 0.7; }
[data-mouse-over-selected='true']  { opacity: 1.0; }
]]>
</style>
<script type="application/ecmascript"><![CDATA[
document.addEventListener('DOMContentLoaded', (event) => {
  highlightEdges();
  highlightAdjacentNodes();
});
]]></script>
</svg>
