<?xml version="1.0" encoding="UTF-8" standalone="no"?>
<!DOCTYPE svg PUBLIC "-//W3C//DTD SVG 1.1//EN"
 "http://www.w3.org/Graphics/SVG/1.1/DTD/svg11.dtd">
<!-- Generated by graphviz version 2.43.0 (0)
 -->
<!-- Title: Core/Src/kicker_chipper_board/system_stm32f3xx.c Pages: 1 -->
<svg width="211pt" height="93pt"
 viewBox="0.00 0.00 211.00 93.00" xmlns="http://www.w3.org/2000/svg" xmlns:xlink="http://www.w3.org/1999/xlink">
<g id="graph0" class="graph" transform="scale(1 1) rotate(0) translate(4 89)">
<title>Core/Src/kicker_chipper_board/system_stm32f3xx.c</title>
<!-- Node1 -->
<g id="Node000001" class="node">
<title>Node1</title>
<g id="a_Node000001"><a xlink:title="CMSIS Cortex&#45;M4 Device Peripheral Access Layer System Source File.">
<polygon fill="#999999" stroke="#666666" points="203,-85 0,-85 0,-55 203,-55 203,-85"/>
<text text-anchor="start" x="8" y="-73" font-family="Helvetica,sans-Serif" font-size="10.00">Core/Src/kicker_chipper_board/system</text>
<text text-anchor="middle" x="101.5" y="-62" font-family="Helvetica,sans-Serif" font-size="10.00">_stm32f3xx.c</text>
</a>
</g>
</g>
<!-- Node2 -->
<g id="Node000002" class="node">
<title>Node2</title>
<g id="a_Node000002"><a xlink:title=" ">
<polygon fill="#e0e0e0" stroke="#999999" points="140.5,-19 62.5,-19 62.5,0 140.5,0 140.5,-19"/>
<text text-anchor="middle" x="101.5" y="-7" font-family="Helvetica,sans-Serif" font-size="10.00">stm32f3xx.h</text>
</a>
</g>
</g>
<!-- Node1&#45;&gt;Node2 -->
<g id="edge1_Node000001_Node000002" class="edge">
<title>Node1&#45;&gt;Node2</title>
<g id="a_edge1_Node000001_Node000002"><a xlink:title=" ">
<path fill="none" stroke="#63b8ff" d="M101.5,-54.84C101.5,-46.26 101.5,-35.3 101.5,-26.42"/>
<polygon fill="#63b8ff" stroke="#63b8ff" points="101.5,-19.27 104.65,-26.27 101.5,-22.77 101.5,-26.27 101.5,-26.27 101.5,-26.27 101.5,-22.77 98.35,-26.27 101.5,-19.27 101.5,-19.27"/>
</a>
</g>
</g>
</g>
</svg>
