<?xml version="1.0" encoding="UTF-8" standalone="no"?>
<!DOCTYPE svg PUBLIC "-//W3C//DTD SVG 1.1//EN"
 "http://www.w3.org/Graphics/SVG/1.1/DTD/svg11.dtd">
<!-- Generated by graphviz version 2.43.0 (0)
 -->
<!-- Title: Core/Inc/top_board/Util/matrix_operations.h Pages: 1 -->
<svg width="450pt" height="82pt"
 viewBox="0.00 0.00 450.00 82.00" xmlns="http://www.w3.org/2000/svg" xmlns:xlink="http://www.w3.org/1999/xlink">
<g id="graph0" class="graph" transform="scale(1 1) rotate(0) translate(4 78)">
<title>Core/Inc/top_board/Util/matrix_operations.h</title>
<!-- Node1 -->
<g id="Node000001" class="node">
<title>Node1</title>
<g id="a_Node000001"><a xlink:title="Matrix operation support.">
<polygon fill="#999999" stroke="#666666" points="327,-74 97,-74 97,-55 327,-55 327,-74"/>
<text text-anchor="middle" x="212" y="-62" font-family="Helvetica,sans-Serif" font-size="10.00">Core/Inc/top_board/Util/matrix_operations.h</text>
</a>
</g>
</g>
<!-- Node2 -->
<g id="Node000002" class="node">
<title>Node2</title>
<g id="a_Node000002"><a xlink:href="kalman_8c.html" target="_top" xlink:title=" ">
<polygon fill="white" stroke="#666666" points="194,-19 0,-19 0,0 194,0 194,-19"/>
<text text-anchor="middle" x="97" y="-7" font-family="Helvetica,sans-Serif" font-size="10.00">Core/Src/top_board/Control/kalman.c</text>
</a>
</g>
</g>
<!-- Node1&#45;&gt;Node2 -->
<g id="edge1_Node000001_Node000002" class="edge">
<title>Node1&#45;&gt;Node2</title>
<g id="a_edge1_Node000001_Node000002"><a xlink:title=" ">
<path fill="none" stroke="#63b8ff" d="M186.91,-51.94C165.5,-42.07 135.19,-28.1 115.81,-19.17"/>
<polygon fill="#63b8ff" stroke="#63b8ff" points="193.52,-54.98 185.85,-54.92 190.34,-53.52 187.17,-52.05 187.17,-52.05 187.17,-52.05 190.34,-53.52 188.48,-49.19 193.52,-54.98 193.52,-54.98"/>
</a>
</g>
</g>
<!-- Node3 -->
<g id="Node000003" class="node">
<title>Node3</title>
<g id="a_Node000003"><a xlink:href="matrix__operations_8c.html" target="_top" xlink:title=" ">
<polygon fill="white" stroke="#666666" points="442,-19 212,-19 212,0 442,0 442,-19"/>
<text text-anchor="middle" x="327" y="-7" font-family="Helvetica,sans-Serif" font-size="10.00">Core/Src/top_board/Util/matrix_operations.c</text>
</a>
</g>
</g>
<!-- Node1&#45;&gt;Node3 -->
<g id="edge2_Node000001_Node000003" class="edge">
<title>Node1&#45;&gt;Node3</title>
<g id="a_edge2_Node000001_Node000003"><a xlink:title=" ">
<path fill="none" stroke="#63b8ff" d="M237.09,-51.94C258.5,-42.07 288.81,-28.1 308.19,-19.17"/>
<polygon fill="#63b8ff" stroke="#63b8ff" points="230.48,-54.98 235.52,-49.19 233.66,-53.52 236.83,-52.05 236.83,-52.05 236.83,-52.05 233.66,-53.52 238.15,-54.92 230.48,-54.98 230.48,-54.98"/>
</a>
</g>
</g>
</g>
</svg>
