<?xml version="1.0" encoding="UTF-8" standalone="no"?>
<!DOCTYPE svg PUBLIC "-//W3C//DTD SVG 1.1//EN"
 "http://www.w3.org/Graphics/SVG/1.1/DTD/svg11.dtd">
<!-- Generated by graphviz version 2.43.0 (0)
 -->
<!-- Title: Core/Inc/general/microcontroller_communication_protocol/from_dribbler/MCP_from_dribbler.h Pages: 1 -->
<svg width="476pt" height="214pt"
 viewBox="0.00 0.00 475.50 214.00" xmlns="http://www.w3.org/2000/svg" xmlns:xlink="http://www.w3.org/1999/xlink">
<g id="graph0" class="graph" transform="scale(1 1) rotate(0) translate(4 210)">
<title>Core/Inc/general/microcontroller_communication_protocol/from_dribbler/MCP_from_dribbler.h</title>
<!-- Node1 -->
<g id="Node000001" class="node">
<title>Node1</title>
<g id="a_Node000001"><a xlink:title=" ">
<polygon fill="#999999" stroke="#666666" points="315.5,-206 103.5,-206 103.5,-165 315.5,-165 315.5,-206"/>
<text text-anchor="start" x="111.5" y="-194" font-family="Helvetica,sans-Serif" font-size="10.00">Core/Inc/general/microcontroller</text>
<text text-anchor="start" x="111.5" y="-183" font-family="Helvetica,sans-Serif" font-size="10.00">_communication_protocol/from_dribbler</text>
<text text-anchor="middle" x="209.5" y="-172" font-family="Helvetica,sans-Serif" font-size="10.00">/MCP_from_dribbler.h</text>
</a>
</g>
</g>
<!-- Node2 -->
<g id="Node000002" class="node">
<title>Node2</title>
<g id="a_Node000002"><a xlink:href="from__dribbler_2MCP__Ack_8h.html" target="_top" xlink:title=" ">
<polygon fill="white" stroke="#666666" points="71,-129 0,-129 0,-110 71,-110 71,-129"/>
<text text-anchor="middle" x="35.5" y="-117" font-family="Helvetica,sans-Serif" font-size="10.00">MCP_Ack.h</text>
</a>
</g>
</g>
<!-- Node1&#45;&gt;Node2 -->
<g id="edge1_Node000001_Node000002" class="edge">
<title>Node1&#45;&gt;Node2</title>
<g id="a_edge1_Node000001_Node000002"><a xlink:title=" ">
<path fill="none" stroke="#63b8ff" d="M156.35,-164.95C126.57,-154 90.52,-140.74 65.58,-131.56"/>
<polygon fill="#63b8ff" stroke="#63b8ff" points="58.86,-129.09 66.52,-128.55 62.14,-130.3 65.43,-131.51 65.43,-131.51 65.43,-131.51 62.14,-130.3 64.34,-134.46 58.86,-129.09 58.86,-129.09"/>
</a>
</g>
</g>
<!-- Node6 -->
<g id="Node000006" class="node">
<title>Node6</title>
<g id="a_Node000006"><a xlink:href="from__dribbler_2MCP__DribblerAlive_8h.html" target="_top" xlink:title=" ">
<polygon fill="white" stroke="#666666" points="205.5,-129 89.5,-129 89.5,-110 205.5,-110 205.5,-129"/>
<text text-anchor="middle" x="147.5" y="-117" font-family="Helvetica,sans-Serif" font-size="10.00">MCP_DribblerAlive.h</text>
</a>
</g>
</g>
<!-- Node1&#45;&gt;Node6 -->
<g id="edge7_Node000001_Node000006" class="edge">
<title>Node1&#45;&gt;Node6</title>
<g id="a_edge7_Node000001_Node000006"><a xlink:title=" ">
<path fill="none" stroke="#63b8ff" d="M190.56,-164.95C181.01,-155.09 169.64,-143.35 160.98,-134.42"/>
<polygon fill="#63b8ff" stroke="#63b8ff" points="155.99,-129.26 163.12,-132.1 158.42,-131.77 160.86,-134.29 160.86,-134.29 160.86,-134.29 158.42,-131.77 158.59,-136.48 155.99,-129.26 155.99,-129.26"/>
</a>
</g>
</g>
<!-- Node7 -->
<g id="Node000007" class="node">
<title>Node7</title>
<g id="a_Node000007"><a xlink:href="from__dribbler_2MCP__SeesBall_8h.html" target="_top" xlink:title=" ">
<polygon fill="white" stroke="#666666" points="319,-129 224,-129 224,-110 319,-110 319,-129"/>
<text text-anchor="middle" x="271.5" y="-117" font-family="Helvetica,sans-Serif" font-size="10.00">MCP_SeesBall.h</text>
</a>
</g>
</g>
<!-- Node1&#45;&gt;Node7 -->
<g id="edge11_Node000001_Node000007" class="edge">
<title>Node1&#45;&gt;Node7</title>
<g id="a_edge11_Node000001_Node000007"><a xlink:title=" ">
<path fill="none" stroke="#63b8ff" d="M228.44,-164.95C237.99,-155.09 249.36,-143.35 258.02,-134.42"/>
<polygon fill="#63b8ff" stroke="#63b8ff" points="263.01,-129.26 260.41,-136.48 260.58,-131.77 258.14,-134.29 258.14,-134.29 258.14,-134.29 260.58,-131.77 255.88,-132.1 263.01,-129.26 263.01,-129.26"/>
</a>
</g>
</g>
<!-- Node8 -->
<g id="Node000008" class="node">
<title>Node8</title>
<g id="a_Node000008"><a xlink:href="from__dribbler_2MCP__DribblerEncoder_8h.html" target="_top" xlink:title=" ">
<polygon fill="white" stroke="#666666" points="467.5,-129 337.5,-129 337.5,-110 467.5,-110 467.5,-129"/>
<text text-anchor="middle" x="402.5" y="-117" font-family="Helvetica,sans-Serif" font-size="10.00">MCP_DribblerEncoder.h</text>
</a>
</g>
</g>
<!-- Node1&#45;&gt;Node8 -->
<g id="edge15_Node000001_Node000008" class="edge">
<title>Node1&#45;&gt;Node8</title>
<g id="a_edge15_Node000001_Node000008"><a xlink:title=" ">
<path fill="none" stroke="#63b8ff" d="M268.46,-164.95C301.87,-153.87 342.41,-140.43 370.09,-131.25"/>
<polygon fill="#63b8ff" stroke="#63b8ff" points="376.84,-129.01 371.19,-134.2 373.52,-130.11 370.2,-131.21 370.2,-131.21 370.2,-131.21 373.52,-130.11 369.21,-128.22 376.84,-129.01 376.84,-129.01"/>
</a>
</g>
</g>
<!-- Node3 -->
<g id="Node000003" class="node">
<title>Node3</title>
<g id="a_Node000003"><a xlink:title=" ">
<polygon fill="#e0e0e0" stroke="#999999" points="212.5,-19 150.5,-19 150.5,0 212.5,0 212.5,-19"/>
<text text-anchor="middle" x="181.5" y="-7" font-family="Helvetica,sans-Serif" font-size="10.00">stdbool.h</text>
</a>
</g>
</g>
<!-- Node2&#45;&gt;Node3 -->
<g id="edge2_Node000002_Node000003" class="edge">
<title>Node2&#45;&gt;Node3</title>
<g id="a_edge2_Node000002_Node000003"><a xlink:title=" ">
<path fill="none" stroke="#63b8ff" d="M45.5,-109.98C60.27,-97.5 88.94,-73.7 114.5,-55 130,-43.66 148.17,-31.67 161.68,-22.99"/>
<polygon fill="#63b8ff" stroke="#63b8ff" points="167.91,-19.01 163.7,-25.44 164.96,-20.9 162.01,-22.78 162.01,-22.78 162.01,-22.78 164.96,-20.9 160.31,-20.13 167.91,-19.01 167.91,-19.01"/>
</a>
</g>
</g>
<!-- Node4 -->
<g id="Node000004" class="node">
<title>Node4</title>
<g id="a_Node000004"><a xlink:title=" ">
<polygon fill="#e0e0e0" stroke="#999999" points="326,-19 273,-19 273,0 326,0 326,-19"/>
<text text-anchor="middle" x="299.5" y="-7" font-family="Helvetica,sans-Serif" font-size="10.00">stdint.h</text>
</a>
</g>
</g>
<!-- Node2&#45;&gt;Node4 -->
<g id="edge3_Node000002_Node000004" class="edge">
<title>Node2&#45;&gt;Node4</title>
<g id="a_edge3_Node000002_Node000004"><a xlink:title=" ">
<path fill="none" stroke="#63b8ff" d="M44.62,-109.7C59.36,-95.97 89.87,-69.52 120.5,-55 168.24,-32.37 228.8,-20.42 265.82,-14.79"/>
<polygon fill="#63b8ff" stroke="#63b8ff" points="272.9,-13.75 266.44,-17.89 269.44,-14.26 265.98,-14.77 265.98,-14.77 265.98,-14.77 269.44,-14.26 265.52,-11.65 272.9,-13.75 272.9,-13.75"/>
</a>
</g>
</g>
<!-- Node5 -->
<g id="Node000005" class="node">
<title>Node5</title>
<g id="a_Node000005"><a xlink:href="MCP__BaseTypes_8h.html" target="_top" xlink:title=" ">
<polygon fill="white" stroke="#666666" points="233.5,-74 129.5,-74 129.5,-55 233.5,-55 233.5,-74"/>
<text text-anchor="middle" x="181.5" y="-62" font-family="Helvetica,sans-Serif" font-size="10.00">MCP_BaseTypes.h</text>
</a>
</g>
</g>
<!-- Node2&#45;&gt;Node5 -->
<g id="edge4_Node000002_Node000005" class="edge">
<title>Node2&#45;&gt;Node5</title>
<g id="a_edge4_Node000002_Node000005"><a xlink:title=" ">
<path fill="none" stroke="#63b8ff" d="M58.96,-109.98C83.93,-100.92 123.53,-86.54 150.93,-76.6"/>
<polygon fill="#63b8ff" stroke="#63b8ff" points="157.62,-74.17 152.11,-79.52 154.33,-75.36 151.04,-76.56 151.04,-76.56 151.04,-76.56 154.33,-75.36 149.96,-73.6 157.62,-74.17 157.62,-74.17"/>
</a>
</g>
</g>
<!-- Node5&#45;&gt;Node3 -->
<g id="edge6_Node000005_Node000003" class="edge">
<title>Node5&#45;&gt;Node3</title>
<g id="a_edge6_Node000005_Node000003"><a xlink:title=" ">
<path fill="none" stroke="#63b8ff" d="M181.5,-54.75C181.5,-47.03 181.5,-35.6 181.5,-26.28"/>
<polygon fill="#63b8ff" stroke="#63b8ff" points="181.5,-19.09 184.65,-26.09 181.5,-22.59 181.5,-26.09 181.5,-26.09 181.5,-26.09 181.5,-22.59 178.35,-26.09 181.5,-19.09 181.5,-19.09"/>
</a>
</g>
</g>
<!-- Node5&#45;&gt;Node4 -->
<g id="edge5_Node000005_Node000004" class="edge">
<title>Node5&#45;&gt;Node4</title>
<g id="a_edge5_Node000005_Node000004"><a xlink:title=" ">
<path fill="none" stroke="#63b8ff" d="M200.46,-54.98C220.3,-46.07 251.57,-32.03 273.66,-22.11"/>
<polygon fill="#63b8ff" stroke="#63b8ff" points="280.2,-19.17 275.1,-24.91 277,-20.6 273.81,-22.04 273.81,-22.04 273.81,-22.04 277,-20.6 272.52,-19.16 280.2,-19.17 280.2,-19.17"/>
</a>
</g>
</g>
<!-- Node6&#45;&gt;Node3 -->
<g id="edge8_Node000006_Node000003" class="edge">
<title>Node6&#45;&gt;Node3</title>
<g id="a_edge8_Node000006_Node000003"><a xlink:title=" ">
<path fill="none" stroke="#63b8ff" d="M138.82,-109.7C127.67,-97.28 110.84,-74.01 120.5,-55 127.8,-40.64 142.15,-29.81 155.1,-22.43"/>
<polygon fill="#63b8ff" stroke="#63b8ff" points="161.3,-19.09 156.63,-25.18 158.22,-20.75 155.14,-22.41 155.14,-22.41 155.14,-22.41 158.22,-20.75 153.65,-19.64 161.3,-19.09 161.3,-19.09"/>
</a>
</g>
</g>
<!-- Node6&#45;&gt;Node4 -->
<g id="edge9_Node000006_Node000004" class="edge">
<title>Node6&#45;&gt;Node4</title>
<g id="a_edge9_Node000006_Node000004"><a xlink:title=" ">
<path fill="none" stroke="#63b8ff" d="M172.81,-109.85C192.87,-102.26 221,-89.96 242.5,-74 261.27,-60.06 278.56,-39.17 289.06,-25.2"/>
<polygon fill="#63b8ff" stroke="#63b8ff" points="293.39,-19.32 291.78,-26.83 291.32,-22.14 289.24,-24.96 289.24,-24.96 289.24,-24.96 291.32,-22.14 286.71,-23.09 293.39,-19.32 293.39,-19.32"/>
</a>
</g>
</g>
<!-- Node6&#45;&gt;Node5 -->
<g id="edge10_Node000006_Node000005" class="edge">
<title>Node6&#45;&gt;Node5</title>
<g id="a_edge10_Node000006_Node000005"><a xlink:title=" ">
<path fill="none" stroke="#63b8ff" d="M153.11,-109.75C158.26,-101.72 165.99,-89.67 172.08,-80.18"/>
<polygon fill="#63b8ff" stroke="#63b8ff" points="175.99,-74.09 174.86,-81.68 174.1,-77.03 172.21,-79.98 172.21,-79.98 172.21,-79.98 174.1,-77.03 169.56,-78.28 175.99,-74.09 175.99,-74.09"/>
</a>
</g>
</g>
<!-- Node7&#45;&gt;Node3 -->
<g id="edge12_Node000007_Node000003" class="edge">
<title>Node7&#45;&gt;Node3</title>
<g id="a_edge12_Node000007_Node000003"><a xlink:title=" ">
<path fill="none" stroke="#63b8ff" d="M269.13,-109.93C265.22,-96.97 256.45,-72.09 242.5,-55 231.84,-41.94 216.5,-30.77 203.87,-22.89"/>
<polygon fill="#63b8ff" stroke="#63b8ff" points="197.55,-19.08 205.17,-20 200.55,-20.89 203.54,-22.7 203.54,-22.7 203.54,-22.7 200.55,-20.89 201.92,-25.39 197.55,-19.08 197.55,-19.08"/>
</a>
</g>
</g>
<!-- Node7&#45;&gt;Node4 -->
<g id="edge13_Node000007_Node000004" class="edge">
<title>Node7&#45;&gt;Node4</title>
<g id="a_edge13_Node000007_Node000004"><a xlink:title=" ">
<path fill="none" stroke="#63b8ff" d="M283.71,-109.86C293.85,-101.88 307.54,-89.01 313.5,-74 319.76,-58.24 313.86,-39.12 307.91,-26"/>
<polygon fill="#63b8ff" stroke="#63b8ff" points="304.67,-19.39 310.58,-24.3 306.21,-22.54 307.75,-25.68 307.75,-25.68 307.75,-25.68 306.21,-22.54 304.92,-27.06 304.67,-19.39 304.67,-19.39"/>
</a>
</g>
</g>
<!-- Node7&#45;&gt;Node5 -->
<g id="edge14_Node000007_Node000005" class="edge">
<title>Node7&#45;&gt;Node5</title>
<g id="a_edge14_Node000007_Node000005"><a xlink:title=" ">
<path fill="none" stroke="#63b8ff" d="M257.04,-109.98C242.3,-101.3 219.29,-87.75 202.53,-77.88"/>
<polygon fill="#63b8ff" stroke="#63b8ff" points="196.22,-74.17 203.85,-75.01 199.24,-75.95 202.25,-77.72 202.25,-77.72 202.25,-77.72 199.24,-75.95 200.66,-80.44 196.22,-74.17 196.22,-74.17"/>
</a>
</g>
</g>
<!-- Node8&#45;&gt;Node3 -->
<g id="edge16_Node000008_Node000003" class="edge">
<title>Node8&#45;&gt;Node3</title>
<g id="a_edge16_Node000008_Node000003"><a xlink:title=" ">
<path fill="none" stroke="#63b8ff" d="M384.79,-109.84C345.33,-90.56 250.17,-44.06 205.46,-22.21"/>
<polygon fill="#63b8ff" stroke="#63b8ff" points="198.99,-19.05 206.66,-19.29 202.13,-20.58 205.28,-22.12 205.28,-22.12 205.28,-22.12 202.13,-20.58 203.9,-24.95 198.99,-19.05 198.99,-19.05"/>
</a>
</g>
</g>
<!-- Node8&#45;&gt;Node4 -->
<g id="edge17_Node000008_Node000004" class="edge">
<title>Node8&#45;&gt;Node4</title>
<g id="a_edge17_Node000008_Node000004"><a xlink:title=" ">
<path fill="none" stroke="#63b8ff" d="M394.07,-109.66C376.18,-90.9 334.27,-46.96 312.76,-24.4"/>
<polygon fill="#63b8ff" stroke="#63b8ff" points="307.76,-19.16 314.87,-22.05 310.17,-21.69 312.59,-24.22 312.59,-24.22 312.59,-24.22 310.17,-21.69 310.31,-26.4 307.76,-19.16 307.76,-19.16"/>
</a>
</g>
</g>
<!-- Node8&#45;&gt;Node5 -->
<g id="edge18_Node000008_Node000005" class="edge">
<title>Node8&#45;&gt;Node5</title>
<g id="a_edge18_Node000008_Node000005"><a xlink:title=" ">
<path fill="none" stroke="#63b8ff" d="M366.99,-109.98C328.12,-100.66 265.81,-85.72 224.28,-75.76"/>
<polygon fill="#63b8ff" stroke="#63b8ff" points="217.29,-74.08 224.83,-72.65 220.69,-74.9 224.09,-75.71 224.09,-75.71 224.09,-75.71 220.69,-74.9 223.36,-78.78 217.29,-74.08 217.29,-74.08"/>
</a>
</g>
</g>
</g>
</svg>
