<?xml version="1.0" encoding="UTF-8" standalone="no"?>
<!DOCTYPE svg PUBLIC "-//W3C//DTD SVG 1.1//EN"
 "http://www.w3.org/Graphics/SVG/1.1/DTD/svg11.dtd">
<!-- Generated by graphviz version 2.43.0 (0)
 -->
<!-- Title: Core/Inc/general/roboteam_embedded_messages/include/REM_RobotMusicCommand.h Pages: 1 -->
<svg width="2221pt" height="280pt"
 viewBox="0.00 0.00 2220.50 280.00" xmlns="http://www.w3.org/2000/svg" xmlns:xlink="http://www.w3.org/1999/xlink">
<g id="graph0" class="graph" transform="scale(1 1) rotate(0) translate(4 276)">
<title>Core/Inc/general/roboteam_embedded_messages/include/REM_RobotMusicCommand.h</title>
<!-- Node1 -->
<g id="Node000001" class="node">
<title>Node1</title>
<g id="a_Node000001"><a xlink:title=" ">
<polygon fill="#999999" stroke="#666666" points="1584.5,-272 1328.5,-272 1328.5,-242 1584.5,-242 1584.5,-272"/>
<text text-anchor="start" x="1336.5" y="-260" font-family="Helvetica,sans-Serif" font-size="10.00">Core/Inc/general/roboteam_embedded</text>
<text text-anchor="middle" x="1456.5" y="-249" font-family="Helvetica,sans-Serif" font-size="10.00">_messages/include/REM_RobotMusicCommand.h</text>
</a>
</g>
</g>
<!-- Node2 -->
<g id="Node000002" class="node">
<title>Node2</title>
<g id="a_Node000002"><a xlink:href="speaker_8h.html" target="_top" xlink:title=" ">
<polygon fill="white" stroke="#666666" points="351,-206 136,-206 136,-187 351,-187 351,-206"/>
<text text-anchor="middle" x="243.5" y="-194" font-family="Helvetica,sans-Serif" font-size="10.00">Core/Inc/top_board/peripherals/speaker.h</text>
</a>
</g>
</g>
<!-- Node1&#45;&gt;Node2 -->
<g id="edge1_Node000001_Node000002" class="edge">
<title>Node1&#45;&gt;Node2</title>
<g id="a_edge1_Node000001_Node000002"><a xlink:title=" ">
<path fill="none" stroke="#63b8ff" d="M1321.3,-249.48C1078.31,-237.76 572.52,-213.37 351.16,-202.69"/>
<polygon fill="#63b8ff" stroke="#63b8ff" points="1328.41,-249.82 1321.27,-252.63 1324.91,-249.65 1321.42,-249.49 1321.42,-249.49 1321.42,-249.49 1324.91,-249.65 1321.57,-246.34 1328.41,-249.82 1328.41,-249.82"/>
</a>
</g>
</g>
<!-- Node5 -->
<g id="Node000005" class="node">
<title>Node5</title>
<g id="a_Node000005"><a xlink:href="robot_8h.html" target="_top" xlink:title=" ">
<polygon fill="#fff0f0" stroke="red" points="1529.5,-206 1383.5,-206 1383.5,-187 1529.5,-187 1529.5,-206"/>
<text text-anchor="middle" x="1456.5" y="-194" font-family="Helvetica,sans-Serif" font-size="10.00">Core/Inc/top_board/robot.h</text>
</a>
</g>
</g>
<!-- Node1&#45;&gt;Node5 -->
<g id="edge4_Node000001_Node000005" class="edge">
<title>Node1&#45;&gt;Node5</title>
<g id="a_edge4_Node000001_Node000005"><a xlink:title=" ">
<path fill="none" stroke="#63b8ff" d="M1456.5,-234.67C1456.5,-224.86 1456.5,-213.76 1456.5,-206.27"/>
<polygon fill="#63b8ff" stroke="#63b8ff" points="1456.5,-241.84 1453.35,-234.84 1456.5,-238.34 1456.5,-234.84 1456.5,-234.84 1456.5,-234.84 1456.5,-238.34 1459.65,-234.84 1456.5,-241.84 1456.5,-241.84"/>
</a>
</g>
</g>
<!-- Node60 -->
<g id="Node000060" class="node">
<title>Node60</title>
<g id="a_Node000060"><a xlink:href="rem_8c.html" target="_top" xlink:title=" ">
<polygon fill="white" stroke="#666666" points="2212.5,-145.5 2072.5,-145.5 2072.5,-126.5 2212.5,-126.5 2212.5,-145.5"/>
<text text-anchor="middle" x="2142.5" y="-133.5" font-family="Helvetica,sans-Serif" font-size="10.00">Core/Src/top_board/rem.c</text>
</a>
</g>
</g>
<!-- Node1&#45;&gt;Node60 -->
<g id="edge30_Node000001_Node000060" class="edge">
<title>Node1&#45;&gt;Node60</title>
<g id="a_edge30_Node000001_Node000060"><a xlink:title=" ">
<path fill="none" stroke="#63b8ff" d="M1545.45,-240.73C1663.76,-220.4 1879.39,-183.24 2063.5,-151 2073.52,-149.25 2084.24,-147.35 2094.46,-145.55"/>
<polygon fill="#63b8ff" stroke="#63b8ff" points="1538.5,-241.93 1544.86,-237.64 1541.95,-241.33 1545.4,-240.74 1545.4,-240.74 1545.4,-240.74 1541.95,-241.33 1545.93,-243.84 1538.5,-241.93 1538.5,-241.93"/>
</a>
</g>
</g>
<!-- Node3 -->
<g id="Node000003" class="node">
<title>Node3</title>
<g id="a_Node000003"><a xlink:href="speaker_8c.html" target="_top" xlink:title=" ">
<polygon fill="white" stroke="#666666" points="215,-145.5 0,-145.5 0,-126.5 215,-126.5 215,-145.5"/>
<text text-anchor="middle" x="107.5" y="-133.5" font-family="Helvetica,sans-Serif" font-size="10.00">Core/Src/top_board/peripherals/speaker.c</text>
</a>
</g>
</g>
<!-- Node2&#45;&gt;Node3 -->
<g id="edge2_Node000002_Node000003" class="edge">
<title>Node2&#45;&gt;Node3</title>
<g id="a_edge2_Node000002_Node000003"><a xlink:title=" ">
<path fill="none" stroke="#63b8ff" d="M217.02,-184.11C190.71,-172.79 150.98,-155.7 127.3,-145.52"/>
<polygon fill="#63b8ff" stroke="#63b8ff" points="223.72,-186.99 216.05,-187.12 220.51,-185.61 217.29,-184.23 217.29,-184.23 217.29,-184.23 220.51,-185.61 218.54,-181.33 223.72,-186.99 223.72,-186.99"/>
</a>
</g>
</g>
<!-- Node4 -->
<g id="Node000004" class="node">
<title>Node4</title>
<g id="a_Node000004"><a xlink:href="robot_8c.html" target="_top" xlink:title=" ">
<polygon fill="white" stroke="#666666" points="1093.5,-19 947.5,-19 947.5,0 1093.5,0 1093.5,-19"/>
<text text-anchor="middle" x="1020.5" y="-7" font-family="Helvetica,sans-Serif" font-size="10.00">Core/Src/top_board/robot.c</text>
</a>
</g>
</g>
<!-- Node2&#45;&gt;Node4 -->
<g id="edge3_Node000002_Node000004" class="edge">
<title>Node2&#45;&gt;Node4</title>
<g id="a_edge3_Node000002_Node000004"><a xlink:title=" ">
<path fill="none" stroke="#63b8ff" d="M240.04,-179.93C234.54,-150.6 227.7,-87.26 262.5,-55 287.36,-31.95 761.89,-17.21 947.22,-12.31"/>
<polygon fill="#63b8ff" stroke="#63b8ff" points="241.45,-186.92 236.98,-180.69 240.76,-183.49 240.06,-180.06 240.06,-180.06 240.06,-180.06 240.76,-183.49 243.15,-179.44 241.45,-186.92 241.45,-186.92"/>
</a>
</g>
</g>
<!-- Node5&#45;&gt;Node4 -->
<g id="edge29_Node000005_Node000004" class="edge">
<title>Node5&#45;&gt;Node4</title>
<g id="a_edge29_Node000005_Node000004"><a xlink:title=" ">
<path fill="none" stroke="#63b8ff" d="M1536.83,-189.47C1561.89,-183.34 1587,-171.92 1602.5,-151 1612.45,-137.56 1621.87,-76.65 1601.5,-55 1567.39,-18.73 1242.12,-11.93 1093.7,-10.72"/>
<polygon fill="#63b8ff" stroke="#63b8ff" points="1529.77,-191.06 1535.91,-186.45 1533.19,-190.29 1536.6,-189.52 1536.6,-189.52 1536.6,-189.52 1533.19,-190.29 1537.29,-192.59 1529.77,-191.06 1529.77,-191.06"/>
</a>
</g>
</g>
<!-- Node6 -->
<g id="Node000006" class="node">
<title>Node6</title>
<g id="a_Node000006"><a xlink:href="top__board_2Util_2logging_8h.html" target="_top" xlink:title=" ">
<polygon fill="white" stroke="#666666" points="1852.5,-145.5 1676.5,-145.5 1676.5,-126.5 1852.5,-126.5 1852.5,-145.5"/>
<text text-anchor="middle" x="1764.5" y="-133.5" font-family="Helvetica,sans-Serif" font-size="10.00">Core/Inc/top_board/Util/logging.h</text>
</a>
</g>
</g>
<!-- Node5&#45;&gt;Node6 -->
<g id="edge5_Node000005_Node000006" class="edge">
<title>Node5&#45;&gt;Node6</title>
<g id="a_edge5_Node000005_Node000006"><a xlink:title=" ">
<path fill="none" stroke="#63b8ff" d="M1508.32,-185.66C1567.55,-174.41 1663.52,-156.18 1719.66,-145.52"/>
<polygon fill="#63b8ff" stroke="#63b8ff" points="1501.29,-186.99 1507.58,-182.59 1504.72,-186.34 1508.16,-185.69 1508.16,-185.69 1508.16,-185.69 1504.72,-186.34 1508.75,-188.78 1501.29,-186.99 1501.29,-186.99"/>
</a>
</g>
</g>
<!-- Node7 -->
<g id="Node000007" class="node">
<title>Node7</title>
<g id="a_Node000007"><a xlink:href="top__board_2main_8h.html" target="_top" xlink:title=": Header for main.c file. This file contains the common defines of the application.">
<polygon fill="white" stroke="#666666" points="2054,-145.5 1909,-145.5 1909,-126.5 2054,-126.5 2054,-145.5"/>
<text text-anchor="middle" x="1981.5" y="-133.5" font-family="Helvetica,sans-Serif" font-size="10.00">Core/Inc/top_board/main.h</text>
</a>
</g>
</g>
<!-- Node5&#45;&gt;Node7 -->
<g id="edge6_Node000005_Node000007" class="edge">
<title>Node5&#45;&gt;Node7</title>
<g id="a_edge6_Node000005_Node000007"><a xlink:title=" ">
<path fill="none" stroke="#63b8ff" d="M1536.73,-188.16C1623.03,-180.35 1764.06,-166.93 1885.5,-151 1897.48,-149.43 1910.36,-147.49 1922.69,-145.57"/>
<polygon fill="#63b8ff" stroke="#63b8ff" points="1529.59,-188.81 1536.27,-185.04 1533.07,-188.5 1536.56,-188.18 1536.56,-188.18 1536.56,-188.18 1533.07,-188.5 1536.84,-191.32 1529.59,-188.81 1529.59,-188.81"/>
</a>
</g>
</g>
<!-- Node8 -->
<g id="Node000008" class="node">
<title>Node8</title>
<g id="a_Node000008"><a xlink:href="OLED__driver_8h.html" target="_top" xlink:title=" ">
<polygon fill="#fff0f0" stroke="red" points="726,-145.5 523,-145.5 523,-126.5 726,-126.5 726,-145.5"/>
<text text-anchor="middle" x="624.5" y="-133.5" font-family="Helvetica,sans-Serif" font-size="10.00">Core/Inc/top_board/oled/OLED_driver.h</text>
</a>
</g>
</g>
<!-- Node5&#45;&gt;Node8 -->
<g id="edge8_Node000005_Node000008" class="edge">
<title>Node5&#45;&gt;Node8</title>
<g id="a_edge8_Node000005_Node000008"><a xlink:title=" ">
<path fill="none" stroke="#63b8ff" d="M1376.1,-192.03C1243.5,-185.96 970.72,-172.03 740.5,-151 723.94,-149.49 706.08,-147.51 689.46,-145.51"/>
<polygon fill="#63b8ff" stroke="#63b8ff" points="1383.47,-192.36 1376.33,-195.19 1379.97,-192.2 1376.47,-192.04 1376.47,-192.04 1376.47,-192.04 1379.97,-192.2 1376.62,-188.9 1383.47,-192.36 1383.47,-192.36"/>
</a>
</g>
</g>
<!-- Node9 -->
<g id="Node000009" class="node">
<title>Node9</title>
<g id="a_Node000009"><a xlink:href="drain__battery_8h.html" target="_top" xlink:title=" ">
<polygon fill="#fff0f0" stroke="red" points="515.5,-79.5 271.5,-79.5 271.5,-60.5 515.5,-60.5 515.5,-79.5"/>
<text text-anchor="middle" x="393.5" y="-67.5" font-family="Helvetica,sans-Serif" font-size="10.00">Core/Inc/top_board/oled/menus/drain_battery.h</text>
</a>
</g>
</g>
<!-- Node5&#45;&gt;Node9 -->
<g id="edge16_Node000005_Node000009" class="edge">
<title>Node5&#45;&gt;Node9</title>
<g id="a_edge16_Node000005_Node000009"><a xlink:title=" ">
<path fill="none" stroke="#63b8ff" d="M1376.17,-194.66C1159.5,-191.98 573.95,-181.93 492.5,-151 452.01,-135.63 415.49,-96.9 400.59,-79.59"/>
<polygon fill="#63b8ff" stroke="#63b8ff" points="1383.4,-194.74 1376.37,-197.81 1379.9,-194.7 1376.4,-194.66 1376.4,-194.66 1376.4,-194.66 1379.9,-194.7 1376.44,-191.51 1383.4,-194.74 1383.4,-194.74"/>
</a>
</g>
</g>
<!-- Node39 -->
<g id="Node000039" class="node">
<title>Node39</title>
<g id="a_Node000039"><a xlink:href="chip__test_8h.html" target="_top" xlink:title=" ">
<polygon fill="#fff0f0" stroke="red" points="1337.5,-85 1155.5,-85 1155.5,-55 1337.5,-55 1337.5,-85"/>
<text text-anchor="start" x="1163.5" y="-73" font-family="Helvetica,sans-Serif" font-size="10.00">Core/Inc/top_board/oled/self_tests</text>
<text text-anchor="middle" x="1246.5" y="-62" font-family="Helvetica,sans-Serif" font-size="10.00">/chip_test.h</text>
</a>
</g>
</g>
<!-- Node5&#45;&gt;Node39 -->
<g id="edge17_Node000005_Node000039" class="edge">
<title>Node5&#45;&gt;Node39</title>
<g id="a_edge17_Node000005_Node000039"><a xlink:title=" ">
<path fill="none" stroke="#63b8ff" d="M1506.72,-184.5C1524.62,-177.9 1542.95,-167.45 1553.5,-151 1560.7,-139.78 1562.14,-131.16 1553.5,-121 1539.51,-104.54 1423.08,-89.13 1337.73,-79.88"/>
<polygon fill="#63b8ff" stroke="#63b8ff" points="1499.63,-186.93 1505.23,-181.68 1502.94,-185.8 1506.25,-184.66 1506.25,-184.66 1506.25,-184.66 1502.94,-185.8 1507.27,-187.64 1499.63,-186.93 1499.63,-186.93"/>
</a>
</g>
</g>
<!-- Node41 -->
<g id="Node000041" class="node">
<title>Node41</title>
<g id="a_Node000041"><a xlink:href="dribbler__test_8h.html" target="_top" xlink:title=" ">
<polygon fill="#fff0f0" stroke="red" points="1592.5,-85 1410.5,-85 1410.5,-55 1592.5,-55 1592.5,-85"/>
<text text-anchor="start" x="1418.5" y="-73" font-family="Helvetica,sans-Serif" font-size="10.00">Core/Inc/top_board/oled/self_tests</text>
<text text-anchor="middle" x="1501.5" y="-62" font-family="Helvetica,sans-Serif" font-size="10.00">/dribbler_test.h</text>
</a>
</g>
</g>
<!-- Node5&#45;&gt;Node41 -->
<g id="edge18_Node000005_Node000041" class="edge">
<title>Node5&#45;&gt;Node41</title>
<g id="a_edge18_Node000005_Node000041"><a xlink:title=" ">
<path fill="none" stroke="#63b8ff" d="M1536.65,-184.74C1556.04,-178.16 1574.59,-167.67 1586.5,-151 1594.25,-140.15 1593.12,-132.57 1586.5,-121 1577.06,-104.5 1559.83,-92.91 1543.34,-85.07"/>
<polygon fill="#63b8ff" stroke="#63b8ff" points="1529.76,-186.91 1535.49,-181.81 1533.1,-185.86 1536.44,-184.81 1536.44,-184.81 1536.44,-184.81 1533.1,-185.86 1537.39,-187.81 1529.76,-186.91 1529.76,-186.91"/>
</a>
</g>
</g>
<!-- Node43 -->
<g id="Node000043" class="node">
<title>Node43</title>
<g id="a_Node000043"><a xlink:href="kicker__test_8h.html" target="_top" xlink:title=" ">
<polygon fill="#fff0f0" stroke="red" points="715.5,-85 533.5,-85 533.5,-55 715.5,-55 715.5,-85"/>
<text text-anchor="start" x="541.5" y="-73" font-family="Helvetica,sans-Serif" font-size="10.00">Core/Inc/top_board/oled/self_tests</text>
<text text-anchor="middle" x="624.5" y="-62" font-family="Helvetica,sans-Serif" font-size="10.00">/kicker_test.h</text>
</a>
</g>
</g>
<!-- Node5&#45;&gt;Node43 -->
<g id="edge19_Node000005_Node000043" class="edge">
<title>Node5&#45;&gt;Node43</title>
<g id="a_edge19_Node000005_Node000043"><a xlink:title=" ">
<path fill="none" stroke="#63b8ff" d="M1376.08,-194.73C1151.74,-192.19 533.43,-182.36 503.5,-151 476.38,-122.58 527.24,-99.09 571.12,-85.07"/>
<polygon fill="#63b8ff" stroke="#63b8ff" points="1383.25,-194.81 1376.22,-197.88 1379.75,-194.77 1376.25,-194.73 1376.25,-194.73 1376.25,-194.73 1379.75,-194.77 1376.29,-191.58 1383.25,-194.81 1383.25,-194.81"/>
</a>
</g>
</g>
<!-- Node45 -->
<g id="Node000045" class="node">
<title>Node45</title>
<g id="a_Node000045"><a xlink:href="send__feedback_8h.html" target="_top" xlink:title=" ">
<polygon fill="#fff0f0" stroke="red" points="915.5,-85 733.5,-85 733.5,-55 915.5,-55 915.5,-85"/>
<text text-anchor="start" x="741.5" y="-73" font-family="Helvetica,sans-Serif" font-size="10.00">Core/Inc/top_board/oled/self_tests</text>
<text text-anchor="middle" x="824.5" y="-62" font-family="Helvetica,sans-Serif" font-size="10.00">/send_feedback.h</text>
</a>
</g>
</g>
<!-- Node5&#45;&gt;Node45 -->
<g id="edge21_Node000005_Node000045" class="edge">
<title>Node5&#45;&gt;Node45</title>
<g id="a_edge21_Node000005_Node000045"><a xlink:title=" ">
<path fill="none" stroke="#63b8ff" d="M1376.14,-194.69C1153.49,-192.05 543.07,-182 513.5,-151 504.3,-141.35 504.85,-131.15 513.5,-121 517.12,-116.75 642.98,-97.53 733.45,-84.2"/>
<polygon fill="#63b8ff" stroke="#63b8ff" points="1383.25,-194.77 1376.22,-197.84 1379.75,-194.73 1376.25,-194.69 1376.25,-194.69 1376.25,-194.69 1379.75,-194.73 1376.29,-191.54 1383.25,-194.77 1383.25,-194.77"/>
</a>
</g>
</g>
<!-- Node51 -->
<g id="Node000051" class="node">
<title>Node51</title>
<g id="a_Node000051"><a xlink:href="kicker__status_8h.html" target="_top" xlink:title=" ">
<polygon fill="#fff0f0" stroke="red" points="1109,-85 934,-85 934,-55 1109,-55 1109,-85"/>
<text text-anchor="start" x="942" y="-73" font-family="Helvetica,sans-Serif" font-size="10.00">Core/Inc/top_board/oled/variable</text>
<text text-anchor="middle" x="1021.5" y="-62" font-family="Helvetica,sans-Serif" font-size="10.00">_pages/kicker_status.h</text>
</a>
</g>
</g>
<!-- Node5&#45;&gt;Node51 -->
<g id="edge24_Node000005_Node000051" class="edge">
<title>Node5&#45;&gt;Node51</title>
<g id="a_edge24_Node000005_Node000051"><a xlink:title=" ">
<path fill="none" stroke="#63b8ff" d="M1376.31,-196.28C1204.66,-197.1 813.94,-194.16 773.5,-151 764.38,-141.27 765.05,-131.32 773.5,-121 778.91,-114.39 869.25,-97.36 939.35,-85.01"/>
<polygon fill="#63b8ff" stroke="#63b8ff" points="1383.32,-196.24 1376.33,-199.43 1379.82,-196.26 1376.32,-196.28 1376.32,-196.28 1376.32,-196.28 1379.82,-196.26 1376.3,-193.13 1383.32,-196.24 1383.32,-196.24"/>
</a>
</g>
</g>
<!-- Node55 -->
<g id="Node000055" class="node">
<title>Node55</title>
<g id="a_Node000055"><a xlink:href="motor__test_8h.html" target="_top" xlink:title=" ">
<polygon fill="#fff0f0" stroke="red" points="964.5,-151 782.5,-151 782.5,-121 964.5,-121 964.5,-151"/>
<text text-anchor="start" x="790.5" y="-139" font-family="Helvetica,sans-Serif" font-size="10.00">Core/Inc/top_board/oled/self_tests</text>
<text text-anchor="middle" x="873.5" y="-128" font-family="Helvetica,sans-Serif" font-size="10.00">/motor_test.h</text>
</a>
</g>
</g>
<!-- Node5&#45;&gt;Node55 -->
<g id="edge20_Node000005_Node000055" class="edge">
<title>Node5&#45;&gt;Node55</title>
<g id="a_edge20_Node000005_Node000055"><a xlink:title=" ">
<path fill="none" stroke="#63b8ff" d="M1376.08,-189.26C1280.12,-181.54 1114.88,-167.4 973.5,-151 970.63,-150.67 967.71,-150.32 964.76,-149.96"/>
<polygon fill="#63b8ff" stroke="#63b8ff" points="1383.15,-189.83 1375.92,-192.41 1379.66,-189.55 1376.18,-189.27 1376.18,-189.27 1376.18,-189.27 1379.66,-189.55 1376.43,-186.13 1383.15,-189.83 1383.15,-189.83"/>
</a>
</g>
</g>
<!-- Node16 -->
<g id="Node000016" class="node">
<title>Node16</title>
<g id="a_Node000016"><a xlink:href="encoder__page_8h.html" target="_top" xlink:title=" ">
<polygon fill="#fff0f0" stroke="red" points="1158,-151 983,-151 983,-121 1158,-121 1158,-151"/>
<text text-anchor="start" x="991" y="-139" font-family="Helvetica,sans-Serif" font-size="10.00">Core/Inc/top_board/oled/variable</text>
<text text-anchor="middle" x="1070.5" y="-128" font-family="Helvetica,sans-Serif" font-size="10.00">_pages/encoder_page.h</text>
</a>
</g>
</g>
<!-- Node5&#45;&gt;Node16 -->
<g id="edge22_Node000005_Node000016" class="edge">
<title>Node5&#45;&gt;Node16</title>
<g id="a_edge22_Node000005_Node000016"><a xlink:title=" ">
<path fill="none" stroke="#63b8ff" d="M1393.13,-185.9C1329.1,-176.19 1229.68,-161.12 1158.12,-150.28"/>
<polygon fill="#63b8ff" stroke="#63b8ff" points="1400.37,-186.99 1392.98,-189.06 1396.91,-186.47 1393.45,-185.94 1393.45,-185.94 1393.45,-185.94 1396.91,-186.47 1393.92,-182.83 1400.37,-186.99 1400.37,-186.99"/>
</a>
</g>
</g>
<!-- Node20 -->
<g id="Node000020" class="node">
<title>Node20</title>
<g id="a_Node000020"><a xlink:href="general__info_8h.html" target="_top" xlink:title=" ">
<polygon fill="#fff0f0" stroke="red" points="1351,-151 1176,-151 1176,-121 1351,-121 1351,-151"/>
<text text-anchor="start" x="1184" y="-139" font-family="Helvetica,sans-Serif" font-size="10.00">Core/Inc/top_board/oled/variable</text>
<text text-anchor="middle" x="1263.5" y="-128" font-family="Helvetica,sans-Serif" font-size="10.00">_pages/general_info.h</text>
</a>
</g>
</g>
<!-- Node5&#45;&gt;Node20 -->
<g id="edge23_Node000005_Node000020" class="edge">
<title>Node5&#45;&gt;Node20</title>
<g id="a_edge23_Node000005_Node000020"><a xlink:title=" ">
<path fill="none" stroke="#63b8ff" d="M1421.61,-184.92C1390.35,-175.45 1344.26,-161.48 1309.9,-151.06"/>
<polygon fill="#63b8ff" stroke="#63b8ff" points="1428.44,-186.99 1420.82,-187.98 1425.09,-185.98 1421.74,-184.96 1421.74,-184.96 1421.74,-184.96 1425.09,-185.98 1422.65,-181.95 1428.44,-186.99 1428.44,-186.99"/>
</a>
</g>
</g>
<!-- Node22 -->
<g id="Node000022" class="node">
<title>Node22</title>
<g id="a_Node000022"><a xlink:href="mcp__page_8h.html" target="_top" xlink:title=" ">
<polygon fill="#fff0f0" stroke="red" points="1910,-85 1735,-85 1735,-55 1910,-55 1910,-85"/>
<text text-anchor="start" x="1743" y="-73" font-family="Helvetica,sans-Serif" font-size="10.00">Core/Inc/top_board/oled/variable</text>
<text text-anchor="middle" x="1822.5" y="-62" font-family="Helvetica,sans-Serif" font-size="10.00">_pages/mcp_page.h</text>
</a>
</g>
</g>
<!-- Node5&#45;&gt;Node22 -->
<g id="edge25_Node000005_Node000022" class="edge">
<title>Node5&#45;&gt;Node22</title>
<g id="a_edge25_Node000005_Node000022"><a xlink:title=" ">
<path fill="none" stroke="#63b8ff" d="M1537.14,-192.31C1649.08,-187.05 1840.28,-174.68 1861.5,-151 1879.13,-131.32 1855.81,-102.24 1838.38,-85.09"/>
<polygon fill="#63b8ff" stroke="#63b8ff" points="1529.89,-192.65 1536.73,-189.18 1533.38,-192.49 1536.88,-192.33 1536.88,-192.33 1536.88,-192.33 1533.38,-192.49 1537.02,-195.47 1529.89,-192.65 1529.89,-192.65"/>
</a>
</g>
</g>
<!-- Node24 -->
<g id="Node000024" class="node">
<title>Node24</title>
<g id="a_Node000024"><a xlink:href="rem__page_8h.html" target="_top" xlink:title=" ">
<polygon fill="#fff0f0" stroke="red" points="1544,-151 1369,-151 1369,-121 1544,-121 1544,-151"/>
<text text-anchor="start" x="1377" y="-139" font-family="Helvetica,sans-Serif" font-size="10.00">Core/Inc/top_board/oled/variable</text>
<text text-anchor="middle" x="1456.5" y="-128" font-family="Helvetica,sans-Serif" font-size="10.00">_pages/rem_page.h</text>
</a>
</g>
</g>
<!-- Node5&#45;&gt;Node24 -->
<g id="edge27_Node000005_Node000024" class="edge">
<title>Node5&#45;&gt;Node24</title>
<g id="a_edge27_Node000005_Node000024"><a xlink:title=" ">
<path fill="none" stroke="#63b8ff" d="M1456.5,-179.7C1456.5,-170.78 1456.5,-159.74 1456.5,-151.11"/>
<polygon fill="#63b8ff" stroke="#63b8ff" points="1456.5,-186.87 1453.35,-179.87 1456.5,-183.37 1456.5,-179.87 1456.5,-179.87 1456.5,-179.87 1456.5,-183.37 1459.65,-179.87 1456.5,-186.87 1456.5,-186.87"/>
</a>
</g>
</g>
<!-- Node5&#45;&gt;Node60 -->
<g id="edge28_Node000005_Node000060" class="edge">
<title>Node5&#45;&gt;Node60</title>
<g id="a_edge28_Node000005_Node000060"><a xlink:title=" ">
<path fill="none" stroke="#63b8ff" d="M1536.79,-192.23C1653.22,-186.9 1875.56,-174.48 2063.5,-151 2075.11,-149.55 2087.61,-147.54 2099.16,-145.5"/>
<polygon fill="#63b8ff" stroke="#63b8ff" points="1529.62,-192.56 1536.47,-189.09 1533.11,-192.4 1536.61,-192.24 1536.61,-192.24 1536.61,-192.24 1533.11,-192.4 1536.75,-195.38 1529.62,-192.56 1529.62,-192.56"/>
</a>
</g>
</g>
<!-- Node7&#45;&gt;Node5 -->
<g id="edge7_Node000007_Node000005" class="edge">
<title>Node7&#45;&gt;Node5</title>
<g id="a_edge7_Node000007_Node000005"><a xlink:title=" ">
<path fill="none" stroke="#63b8ff" d="M1933.14,-146.7C1923.36,-148.24 1913.14,-149.74 1903.5,-151 1772.39,-168.19 1618.46,-182.47 1529.65,-189.92"/>
<polygon fill="#63b8ff" stroke="#63b8ff" points="1940.16,-145.57 1933.75,-149.79 1936.71,-146.12 1933.25,-146.68 1933.25,-146.68 1933.25,-146.68 1936.71,-146.12 1932.75,-143.57 1940.16,-145.57 1940.16,-145.57"/>
</a>
</g>
</g>
<!-- Node8&#45;&gt;Node9 -->
<g id="edge9_Node000008_Node000009" class="edge">
<title>Node8&#45;&gt;Node9</title>
<g id="a_edge9_Node000008_Node000009"><a xlink:title=" ">
<path fill="none" stroke="#63b8ff" d="M586.34,-124.43C541.06,-111.88 466.43,-91.21 424.53,-79.6"/>
<polygon fill="#63b8ff" stroke="#63b8ff" points="593.35,-126.37 585.76,-127.54 589.97,-125.43 586.6,-124.5 586.6,-124.5 586.6,-124.5 589.97,-125.43 587.44,-121.46 593.35,-126.37 593.35,-126.37"/>
</a>
</g>
</g>
<!-- Node8&#45;&gt;Node39 -->
<g id="edge11_Node000008_Node000039" class="edge">
<title>Node8&#45;&gt;Node39</title>
<g id="a_edge11_Node000008_Node000039"><a xlink:title=" ">
<path fill="none" stroke="#63b8ff" d="M717.49,-125.77C816.62,-115.88 978.17,-99.63 1117.5,-85 1129.71,-83.72 1142.57,-82.35 1155.24,-80.98"/>
<polygon fill="#63b8ff" stroke="#63b8ff" points="710.46,-126.47 717.11,-122.64 713.94,-126.12 717.43,-125.77 717.43,-125.77 717.43,-125.77 713.94,-126.12 717.74,-128.91 710.46,-126.47 710.46,-126.47"/>
</a>
</g>
</g>
<!-- Node8&#45;&gt;Node41 -->
<g id="edge12_Node000008_Node000041" class="edge">
<title>Node8&#45;&gt;Node41</title>
<g id="a_edge12_Node000008_Node000041"><a xlink:title=" ">
<path fill="none" stroke="#63b8ff" d="M717.66,-125.8C736.15,-124.1 755.43,-122.42 773.5,-121 1027.89,-101.06 1092.08,-104.48 1346.5,-85 1367.11,-83.42 1389.24,-81.54 1410.15,-79.67"/>
<polygon fill="#63b8ff" stroke="#63b8ff" points="710.34,-126.48 717.02,-122.7 713.83,-126.15 717.31,-125.83 717.31,-125.83 717.31,-125.83 713.83,-126.15 717.6,-128.97 710.34,-126.48 710.34,-126.48"/>
</a>
</g>
</g>
<!-- Node8&#45;&gt;Node43 -->
<g id="edge13_Node000008_Node000043" class="edge">
<title>Node8&#45;&gt;Node43</title>
<g id="a_edge13_Node000008_Node000043"><a xlink:title=" ">
<path fill="none" stroke="#63b8ff" d="M624.5,-119.16C624.5,-108.81 624.5,-95.4 624.5,-85.36"/>
<polygon fill="#63b8ff" stroke="#63b8ff" points="624.5,-126.37 621.35,-119.37 624.5,-122.87 624.5,-119.37 624.5,-119.37 624.5,-119.37 624.5,-122.87 627.65,-119.37 624.5,-126.37 624.5,-126.37"/>
</a>
</g>
</g>
<!-- Node8&#45;&gt;Node45 -->
<g id="edge14_Node000008_Node000045" class="edge">
<title>Node8&#45;&gt;Node45</title>
<g id="a_edge14_Node000008_Node000045"><a xlink:title=" ">
<path fill="none" stroke="#63b8ff" d="M658.36,-124.17C691.95,-113.42 743.6,-96.89 780.39,-85.12"/>
<polygon fill="#63b8ff" stroke="#63b8ff" points="651.47,-126.37 657.18,-121.24 654.81,-125.3 658.14,-124.24 658.14,-124.24 658.14,-124.24 654.81,-125.3 659.1,-127.24 651.47,-126.37 651.47,-126.37"/>
</a>
</g>
</g>
<!-- Node8&#45;&gt;Node51 -->
<g id="edge15_Node000008_Node000051" class="edge">
<title>Node8&#45;&gt;Node51</title>
<g id="a_edge15_Node000008_Node000051"><a xlink:title=" ">
<path fill="none" stroke="#63b8ff" d="M684.73,-125.29C751.23,-114.57 858.85,-97.22 934.5,-85.02"/>
<polygon fill="#63b8ff" stroke="#63b8ff" points="677.63,-126.44 684.04,-122.21 681.08,-125.88 684.54,-125.32 684.54,-125.32 684.54,-125.32 681.08,-125.88 685.04,-128.43 677.63,-126.44 677.63,-126.44"/>
</a>
</g>
</g>
<!-- Node9&#45;&gt;Node4 -->
<g id="edge10_Node000009_Node000004" class="edge">
<title>Node9&#45;&gt;Node4</title>
<g id="a_edge10_Node000009_Node000004"><a xlink:title=" ">
<path fill="none" stroke="#63b8ff" d="M478.11,-59.75C493.54,-58.12 509.5,-56.47 524.5,-55 674.64,-40.24 850.56,-24.93 947.35,-16.67"/>
<polygon fill="#63b8ff" stroke="#63b8ff" points="471.06,-60.49 477.69,-56.62 474.54,-60.12 478.02,-59.75 478.02,-59.75 478.02,-59.75 474.54,-60.12 478.35,-62.89 471.06,-60.49 471.06,-60.49"/>
</a>
</g>
</g>
<!-- Node22&#45;&gt;Node4 -->
<g id="edge26_Node000022_Node000004" class="edge">
<title>Node22&#45;&gt;Node4</title>
<g id="a_edge26_Node000022_Node000004"><a xlink:title=" ">
<path fill="none" stroke="#63b8ff" d="M1727.7,-60.42C1706.26,-58.56 1683.6,-56.65 1662.5,-55 1456.44,-38.84 1212.93,-22.8 1093.71,-15.14"/>
<polygon fill="#63b8ff" stroke="#63b8ff" points="1734.92,-61.05 1727.67,-63.58 1731.43,-60.74 1727.94,-60.44 1727.94,-60.44 1727.94,-60.44 1731.43,-60.74 1728.21,-57.3 1734.92,-61.05 1734.92,-61.05"/>
</a>
</g>
</g>
</g>
</svg>
