<?xml version="1.0" encoding="UTF-8" standalone="no"?>
<!DOCTYPE svg PUBLIC "-//W3C//DTD SVG 1.1//EN"
 "http://www.w3.org/Graphics/SVG/1.1/DTD/svg11.dtd">
<!-- Generated by graphviz version 2.43.0 (0)
 -->
<!-- Title: Core/Src/top_board/peripherals/sdcard.c Pages: 1 -->
<!--zoomable 412 -->

<svg id="main" version="1.1" xmlns="http://www.w3.org/2000/svg" xmlns:xlink="http://www.w3.org/1999/xlink" xml:space="preserve" onload="init(evt)">
<style type="text/css"><![CDATA[
.node, .edge {opacity: 0.7;}
.node.selected, .edge.selected {opacity: 1;}
.edge:hover path { stroke: red; }
.edge:hover polygon { stroke: red; fill: red; }
]]></style>

<defs>
  <circle id="rim" cx="0" cy="0" r="7"/>
  <circle id="rim2" cx="0" cy="0" r="3.5"/>
  <g id="zoomPlus">
    <use xlink:href="#rim" fill="#404040"><set attributeName="fill" to="#808080" begin="zoomplus.mouseover" end="zoomplus.mouseout"/></use>
    <path d="M-4,0h8M0,-4v8" fill="none" stroke="white" stroke-width="1.5" pointer-events="none"/>
  </g>
  <g id="zoomMin">
    <use xlink:href="#rim" fill="#404040"><set attributeName="fill" to="#808080" begin="zoomminus.mouseover" end="zoomminus.mouseout"/></use>
    <path d="M-4,0h8" fill="none" stroke="white" stroke-width="1.5" pointer-events="none"/>
  </g>
  <g id="arrowUp" transform="translate(30 24)">
    <use xlink:href="#rim"/>
    <path pointer-events="none" fill="none" stroke="white" stroke-width="1.5" d="M0,-3.0v7 M-2.5,-0.5L0,-3.0L2.5,-0.5"/>
  </g>
  <g id="arrowRight" transform="rotate(90) translate(36 -43)">
    <use xlink:href="#rim"/>
    <path pointer-events="none" fill="none" stroke="white" stroke-width="1.5" d="M0,-3.0v7 M-2.5,-0.5L0,-3.0L2.5,-0.5"/>
  </g>
  <g id="arrowDown" transform="rotate(180) translate(-30 -48)">
    <use xlink:href="#rim"/>
    <path pointer-events="none" fill="none" stroke="white" stroke-width="1.5" d="M0,-3.0v7 M-2.5,-0.5L0,-3.0L2.5,-0.5"/>
  </g>
  <g id="arrowLeft" transform="rotate(270) translate(-36 17)">
    <use xlink:href="#rim"/>
    <path pointer-events="none" fill="none" stroke="white" stroke-width="1.5" d="M0,-3.0v7 M-2.5,-0.5L0,-3.0L2.5,-0.5"/>
  </g>
  <g id="resetDef">
    <use xlink:href="#rim2" fill="#404040"><set attributeName="fill" to="#808080" begin="reset.mouseover" end="reset.mouseout"/></use>
  </g>
</defs>
<script type="application/ecmascript">
var viewWidth = 551;
var viewHeight = 412;
var sectionId = 'dynsection-0';
</script>
<script type="application/ecmascript" xlink:href="svg.min.js"/>
<svg id="graph" class="graph">
<g id="viewport">
<title>Core/Src/top_board/peripherals/sdcard.c</title>
<!-- Node1 -->
<g id="Node000001" class="node">
<title>Node1</title>
<g id="a_Node000001"><a xlink:title=" ">
<polygon fill="#999999" stroke="#666666" points="371.06,-404 161.06,-404 161.06,-385 371.06,-385 371.06,-404"/>
<text text-anchor="middle" x="266.06" y="-392" font-family="Helvetica,sans-Serif" font-size="10.00">Core/Src/top_board/peripherals/sdcard.c</text>
</a>
</g>
</g>
<!-- Node2 -->
<g id="Node000002" class="node">
<title>Node2</title>
<g id="a_Node000002"><a xlink:title=" ">
<polygon fill="#e0e0e0" stroke="#999999" points="163.06,-19 65.06,-19 65.06,0 163.06,0 163.06,-19"/>
<text text-anchor="middle" x="114.06" y="-7" font-family="Helvetica,sans-Serif" font-size="10.00">stm32f7xx_hal.h</text>
</a>
</g>
</g>
<!-- Node1&#45;&gt;Node2 -->
<g id="edge1_Node000001_Node000002" class="edge">
<title>Node1&#45;&gt;Node2</title>
<g id="a_edge1_Node000001_Node000002"><a xlink:title=" ">
<path fill="none" stroke="#63b8ff" d="M221.54,-384.98C145.81,-369.21 0.06,-332.73 0.06,-285.5 0.06,-285.5 0.06,-285.5 0.06,-118.5 0.06,-89.04 -0.18,-77.31 19.06,-55 32.94,-38.91 53.9,-28.24 72.6,-21.4"/>
<polygon fill="#63b8ff" stroke="#63b8ff" points="79.38,-19.05 73.8,-24.32 76.07,-20.19 72.76,-21.34 72.76,-21.34 72.76,-21.34 76.07,-20.19 71.73,-18.37 79.38,-19.05 79.38,-19.05"/>
</a>
</g>
</g>
<!-- Node3 -->
<g id="Node000003" class="node">
<title>Node3</title>
<g id="a_Node000003"><a xlink:title=" ">
<polygon fill="#e0e0e0" stroke="#999999" points="297.06,-294 235.06,-294 235.06,-275 297.06,-275 297.06,-294"/>
<text text-anchor="middle" x="266.06" y="-282" font-family="Helvetica,sans-Serif" font-size="10.00">stdbool.h</text>
</a>
</g>
</g>
<!-- Node1&#45;&gt;Node3 -->
<g id="edge2_Node000001_Node000003" class="edge">
<title>Node1&#45;&gt;Node3</title>
<g id="a_edge2_Node000001_Node000003"><a xlink:title=" ">
<path fill="none" stroke="#63b8ff" d="M255.35,-384.93C246.13,-376.8 233.47,-363.68 228.06,-349 221.21,-330.44 236.36,-311.23 249.51,-298.87"/>
<polygon fill="#63b8ff" stroke="#63b8ff" points="254.95,-294.01 251.83,-301.02 252.34,-296.34 249.73,-298.67 249.73,-298.67 249.73,-298.67 252.34,-296.34 247.63,-296.32 254.95,-294.01 254.95,-294.01"/>
</a>
</g>
</g>
<!-- Node4 -->
<g id="Node000004" class="node">
<title>Node4</title>
<g id="a_Node000004"><a xlink:href="fatfs_8h.html" target="_top" xlink:title="Header for fatfs applications.">
<polygon fill="white" stroke="#666666" points="159.06,-349 111.06,-349 111.06,-330 159.06,-330 159.06,-349"/>
<text text-anchor="middle" x="135.06" y="-337" font-family="Helvetica,sans-Serif" font-size="10.00">fatfs.h</text>
</a>
</g>
</g>
<!-- Node1&#45;&gt;Node4 -->
<g id="edge3_Node000001_Node000004" class="edge">
<title>Node1&#45;&gt;Node4</title>
<g id="a_edge3_Node000001_Node000004"><a xlink:title=" ">
<path fill="none" stroke="#63b8ff" d="M245.01,-384.98C222.8,-376 187.67,-361.79 163.12,-351.85"/>
<polygon fill="#63b8ff" stroke="#63b8ff" points="156.49,-349.17 164.16,-348.88 159.74,-350.48 162.98,-351.8 162.98,-351.8 162.98,-351.8 159.74,-350.48 161.8,-354.72 156.49,-349.17 156.49,-349.17"/>
</a>
</g>
</g>
<!-- Node16 -->
<g id="Node000016" class="node">
<title>Node16</title>
<g id="a_Node000016"><a xlink:href="sdcard_8h.html" target="_top" xlink:title=" ">
<polygon fill="white" stroke="#666666" points="295.06,-349 237.06,-349 237.06,-330 295.06,-330 295.06,-349"/>
<text text-anchor="middle" x="266.06" y="-337" font-family="Helvetica,sans-Serif" font-size="10.00">sdcard.h</text>
</a>
</g>
</g>
<!-- Node1&#45;&gt;Node16 -->
<g id="edge21_Node000001_Node000016" class="edge">
<title>Node1&#45;&gt;Node16</title>
<g id="a_edge21_Node000001_Node000016"><a xlink:title=" ">
<path fill="none" stroke="#63b8ff" d="M266.06,-384.75C266.06,-377.03 266.06,-365.6 266.06,-356.28"/>
<polygon fill="#63b8ff" stroke="#63b8ff" points="266.06,-349.09 269.21,-356.09 266.06,-352.59 266.06,-356.09 266.06,-356.09 266.06,-356.09 266.06,-352.59 262.91,-356.09 266.06,-349.09 266.06,-349.09"/>
</a>
</g>
</g>
<!-- Node17 -->
<g id="Node000017" class="node">
<title>Node17</title>
<g id="a_Node000017"><a xlink:title=" ">
<polygon fill="#e0e0e0" stroke="#999999" points="381.06,-349 313.06,-349 313.06,-330 381.06,-330 381.06,-349"/>
<text text-anchor="middle" x="347.06" y="-337" font-family="Helvetica,sans-Serif" font-size="10.00">gpio_util.h</text>
</a>
</g>
</g>
<!-- Node1&#45;&gt;Node17 -->
<g id="edge24_Node000001_Node000017" class="edge">
<title>Node1&#45;&gt;Node17</title>
<g id="a_edge24_Node000001_Node000017"><a xlink:title=" ">
<path fill="none" stroke="#63b8ff" d="M279.07,-384.98C292.22,-376.38 312.69,-362.99 327.73,-353.15"/>
<polygon fill="#63b8ff" stroke="#63b8ff" points="333.81,-349.17 329.68,-355.64 330.88,-351.09 327.95,-353 327.95,-353 327.95,-353 330.88,-351.09 326.23,-350.37 333.81,-349.17 333.81,-349.17"/>
</a>
</g>
</g>
<!-- Node18 -->
<g id="Node000018" class="node">
<title>Node18</title>
<g id="a_Node000018"><a xlink:title=" ">
<polygon fill="#e0e0e0" stroke="#999999" points="462.56,-349 399.56,-349 399.56,-330 462.56,-330 462.56,-349"/>
<text text-anchor="middle" x="431.06" y="-337" font-family="Helvetica,sans-Serif" font-size="10.00">tim_util.h</text>
</a>
</g>
</g>
<!-- Node1&#45;&gt;Node18 -->
<g id="edge25_Node000001_Node000018" class="edge">
<title>Node1&#45;&gt;Node18</title>
<g id="a_edge25_Node000001_Node000018"><a xlink:title=" ">
<path fill="none" stroke="#63b8ff" d="M292.57,-384.98C321.11,-375.82 366.58,-361.21 397.57,-351.26"/>
<polygon fill="#63b8ff" stroke="#63b8ff" points="404.34,-349.08 398.64,-354.22 401.01,-350.15 397.68,-351.22 397.68,-351.22 397.68,-351.22 401.01,-350.15 396.71,-348.22 404.34,-349.08 404.34,-349.08"/>
</a>
</g>
</g>
<!-- Node19 -->
<g id="Node000019" class="node">
<title>Node19</title>
<g id="a_Node000019"><a xlink:title=" ">
<polygon fill="#e0e0e0" stroke="#999999" points="543.06,-349 481.06,-349 481.06,-330 543.06,-330 543.06,-349"/>
<text text-anchor="middle" x="512.06" y="-337" font-family="Helvetica,sans-Serif" font-size="10.00">logging.h</text>
</a>
</g>
</g>
<!-- Node1&#45;&gt;Node19 -->
<g id="edge26_Node000001_Node000019" class="edge">
<title>Node1&#45;&gt;Node19</title>
<g id="a_edge26_Node000001_Node000019"><a xlink:title=" ">
<path fill="none" stroke="#63b8ff" d="M305.58,-384.98C351.87,-375.01 428.01,-358.61 473.76,-348.75"/>
<polygon fill="#63b8ff" stroke="#63b8ff" points="480.83,-347.23 474.65,-351.78 477.41,-347.97 473.99,-348.7 473.99,-348.7 473.99,-348.7 477.41,-347.97 473.32,-345.62 480.83,-347.23 480.83,-347.23"/>
</a>
</g>
</g>
<!-- Node5 -->
<g id="Node000005" class="node">
<title>Node5</title>
<g id="a_Node000005"><a xlink:href="ff_8h.html" target="_top" xlink:title=" ">
<polygon fill="white" stroke="#666666" points="185.06,-239 153.06,-239 153.06,-220 185.06,-220 185.06,-239"/>
<text text-anchor="middle" x="169.06" y="-227" font-family="Helvetica,sans-Serif" font-size="10.00">ff.h</text>
</a>
</g>
</g>
<!-- Node4&#45;&gt;Node5 -->
<g id="edge4_Node000004_Node000005" class="edge">
<title>Node4&#45;&gt;Node5</title>
<g id="a_edge4_Node000004_Node000005"><a xlink:title=" ">
<path fill="none" stroke="#63b8ff" d="M132.64,-329.97C129.53,-317.49 125.31,-293.68 132.06,-275 136.33,-263.18 145.27,-252.28 153.29,-244.23"/>
<polygon fill="#63b8ff" stroke="#63b8ff" points="158.62,-239.13 155.74,-246.25 156.09,-241.55 153.56,-243.97 153.56,-243.97 153.56,-243.97 156.09,-241.55 151.39,-241.69 158.62,-239.13 158.62,-239.13"/>
</a>
</g>
</g>
<!-- Node12 -->
<g id="Node000012" class="node">
<title>Node12</title>
<g id="a_Node000012"><a xlink:href="ff__gen__drv_8h.html" target="_top" xlink:title="Header for ff_gen_drv.c module.">
<polygon fill="white" stroke="#666666" points="217.06,-294 141.06,-294 141.06,-275 217.06,-275 217.06,-294"/>
<text text-anchor="middle" x="179.06" y="-282" font-family="Helvetica,sans-Serif" font-size="10.00">ff_gen_drv.h</text>
</a>
</g>
</g>
<!-- Node4&#45;&gt;Node12 -->
<g id="edge14_Node000004_Node000012" class="edge">
<title>Node4&#45;&gt;Node12</title>
<g id="a_edge14_Node000004_Node000012"><a xlink:title=" ">
<path fill="none" stroke="#63b8ff" d="M142.33,-329.75C149.12,-321.57 159.38,-309.21 167.33,-299.63"/>
<polygon fill="#63b8ff" stroke="#63b8ff" points="171.93,-294.09 169.88,-301.49 169.69,-296.78 167.46,-299.47 167.46,-299.47 167.46,-299.47 169.69,-296.78 165.03,-297.46 171.93,-294.09 171.93,-294.09"/>
</a>
</g>
</g>
<!-- Node15 -->
<g id="Node000015" class="node">
<title>Node15</title>
<g id="a_Node000015"><a xlink:href="sd__diskio_8h.html" target="_top" xlink:title="Header for sd_diskio.c module.">
<polygon fill="white" stroke="#666666" points="110.56,-184 39.56,-184 39.56,-165 110.56,-165 110.56,-184"/>
<text text-anchor="middle" x="75.06" y="-172" font-family="Helvetica,sans-Serif" font-size="10.00">sd_diskio.h</text>
</a>
</g>
</g>
<!-- Node4&#45;&gt;Node15 -->
<g id="edge19_Node000004_Node000015" class="edge">
<title>Node4&#45;&gt;Node15</title>
<g id="a_edge19_Node000004_Node000015"><a xlink:title=" ">
<path fill="none" stroke="#63b8ff" d="M131.83,-329.74C122.15,-303.42 93.23,-224.85 80.82,-191.14"/>
<polygon fill="#63b8ff" stroke="#63b8ff" points="78.3,-184.31 83.68,-189.79 79.51,-187.59 80.72,-190.88 80.72,-190.88 80.72,-190.88 79.51,-187.59 77.76,-191.96 78.3,-184.31 78.3,-184.31"/>
</a>
</g>
</g>
<!-- Node6 -->
<g id="Node000006" class="node">
<title>Node6</title>
<g id="a_Node000006"><a xlink:href="integer_8h.html" target="_top" xlink:title=" ">
<polygon fill="white" stroke="#666666" points="269.56,-184 210.56,-184 210.56,-165 269.56,-165 269.56,-184"/>
<text text-anchor="middle" x="240.06" y="-172" font-family="Helvetica,sans-Serif" font-size="10.00">integer.h</text>
</a>
</g>
</g>
<!-- Node5&#45;&gt;Node6 -->
<g id="edge5_Node000005_Node000006" class="edge">
<title>Node5&#45;&gt;Node6</title>
<g id="a_edge5_Node000005_Node000006"><a xlink:title=" ">
<path fill="none" stroke="#63b8ff" d="M180.47,-219.98C191.89,-211.46 209.61,-198.23 222.76,-188.41"/>
<polygon fill="#63b8ff" stroke="#63b8ff" points="228.45,-184.17 224.72,-190.88 225.64,-186.26 222.84,-188.36 222.84,-188.36 222.84,-188.36 225.64,-186.26 220.95,-185.83 228.45,-184.17 228.45,-184.17"/>
</a>
</g>
</g>
<!-- Node7 -->
<g id="Node000007" class="node">
<title>Node7</title>
<g id="a_Node000007"><a xlink:href="ffconf_8h.html" target="_top" xlink:title=" ">
<polygon fill="white" stroke="#666666" points="192.56,-184 139.56,-184 139.56,-165 192.56,-165 192.56,-184"/>
<text text-anchor="middle" x="166.06" y="-172" font-family="Helvetica,sans-Serif" font-size="10.00">ffconf.h</text>
</a>
</g>
</g>
<!-- Node5&#45;&gt;Node7 -->
<g id="edge6_Node000005_Node000007" class="edge">
<title>Node5&#45;&gt;Node7</title>
<g id="a_edge6_Node000005_Node000007"><a xlink:title=" ">
<path fill="none" stroke="#63b8ff" d="M168.56,-219.75C168.13,-212.03 167.48,-200.6 166.95,-191.28"/>
<polygon fill="#63b8ff" stroke="#63b8ff" points="166.55,-184.09 170.09,-190.9 166.74,-187.58 166.94,-191.08 166.94,-191.08 166.94,-191.08 166.74,-187.58 163.8,-191.26 166.55,-184.09 166.55,-184.09"/>
</a>
</g>
</g>
<!-- Node7&#45;&gt;Node2 -->
<g id="edge8_Node000007_Node000002" class="edge">
<title>Node7&#45;&gt;Node2</title>
<g id="a_edge8_Node000007_Node000002"><a xlink:title=" ">
<path fill="none" stroke="#63b8ff" d="M176.46,-164.85C189.39,-152.98 208.85,-130.74 201.06,-110 187.12,-72.89 152.38,-40.55 131.25,-23.45"/>
<polygon fill="#63b8ff" stroke="#63b8ff" points="125.69,-19.04 133.13,-20.91 128.43,-21.21 131.17,-23.38 131.17,-23.38 131.17,-23.38 128.43,-21.21 129.22,-25.85 125.69,-19.04 125.69,-19.04"/>
</a>
</g>
</g>
<!-- Node8 -->
<g id="Node000008" class="node">
<title>Node8</title>
<g id="a_Node000008"><a xlink:title=" ">
<polygon fill="#e0e0e0" stroke="#999999" points="299.06,-129 249.06,-129 249.06,-110 299.06,-110 299.06,-129"/>
<text text-anchor="middle" x="274.06" y="-117" font-family="Helvetica,sans-Serif" font-size="10.00">main.h</text>
</a>
</g>
</g>
<!-- Node7&#45;&gt;Node8 -->
<g id="edge7_Node000007_Node000008" class="edge">
<title>Node7&#45;&gt;Node8</title>
<g id="a_edge7_Node000007_Node000008"><a xlink:title=" ">
<path fill="none" stroke="#63b8ff" d="M183.41,-164.98C201.41,-156.15 229.7,-142.27 249.88,-132.36"/>
<polygon fill="#63b8ff" stroke="#63b8ff" points="256.39,-129.17 251.5,-135.08 253.25,-130.71 250.11,-132.25 250.11,-132.25 250.11,-132.25 253.25,-130.71 248.72,-129.43 256.39,-129.17 256.39,-129.17"/>
</a>
</g>
</g>
<!-- Node9 -->
<g id="Node000009" class="node">
<title>Node9</title>
<g id="a_Node000009"><a xlink:href="bsp__driver__sd_8h.html" target="_top" xlink:title="This file contains the common defines and functions prototypes for the bsp_driver_sd....">
<polygon fill="white" stroke="#666666" points="121.56,-129 28.56,-129 28.56,-110 121.56,-110 121.56,-129"/>
<text text-anchor="middle" x="75.06" y="-117" font-family="Helvetica,sans-Serif" font-size="10.00">bsp_driver_sd.h</text>
</a>
</g>
</g>
<!-- Node7&#45;&gt;Node9 -->
<g id="edge9_Node000007_Node000009" class="edge">
<title>Node7&#45;&gt;Node9</title>
<g id="a_edge9_Node000007_Node000009"><a xlink:title=" ">
<path fill="none" stroke="#63b8ff" d="M151.44,-164.98C136.54,-156.3 113.27,-142.75 96.32,-132.88"/>
<polygon fill="#63b8ff" stroke="#63b8ff" points="89.95,-129.17 97.58,-129.97 92.97,-130.93 96,-132.69 96,-132.69 96,-132.69 92.97,-130.93 94.41,-135.42 89.95,-129.17 89.95,-129.17"/>
</a>
</g>
</g>
<!-- Node11 -->
<g id="Node000011" class="node">
<title>Node11</title>
<g id="a_Node000011"><a xlink:title=" ">
<polygon fill="#e0e0e0" stroke="#999999" points="192.56,-129 139.56,-129 139.56,-110 192.56,-110 192.56,-129"/>
<text text-anchor="middle" x="166.06" y="-117" font-family="Helvetica,sans-Serif" font-size="10.00">stdlib.h</text>
</a>
</g>
</g>
<!-- Node7&#45;&gt;Node11 -->
<g id="edge13_Node000007_Node000011" class="edge">
<title>Node7&#45;&gt;Node11</title>
<g id="a_edge13_Node000007_Node000011"><a xlink:title=" ">
<path fill="none" stroke="#63b8ff" d="M166.06,-164.75C166.06,-157.03 166.06,-145.6 166.06,-136.28"/>
<polygon fill="#63b8ff" stroke="#63b8ff" points="166.06,-129.09 169.21,-136.09 166.06,-132.59 166.06,-136.09 166.06,-136.09 166.06,-136.09 166.06,-132.59 162.91,-136.09 166.06,-129.09 166.06,-129.09"/>
</a>
</g>
</g>
<!-- Node9&#45;&gt;Node2 -->
<g id="edge10_Node000009_Node000002" class="edge">
<title>Node9&#45;&gt;Node2</title>
<g id="a_edge10_Node000009_Node000002"><a xlink:title=" ">
<path fill="none" stroke="#63b8ff" d="M93.41,-109.88C106.85,-102.46 124.08,-90.36 132.06,-74 139.76,-58.21 131.79,-38.57 124.15,-25.34"/>
<polygon fill="#63b8ff" stroke="#63b8ff" points="120.27,-19.07 126.63,-23.36 122.11,-22.04 123.95,-25.02 123.95,-25.02 123.95,-25.02 122.11,-22.04 121.27,-26.68 120.27,-19.07 120.27,-19.07"/>
</a>
</g>
</g>
<!-- Node10 -->
<g id="Node000010" class="node">
<title>Node10</title>
<g id="a_Node000010"><a xlink:href="fatfs__platform_8h.html" target="_top" xlink:title=": fatfs_platform header file">
<polygon fill="white" stroke="#666666" points="123.56,-74 28.56,-74 28.56,-55 123.56,-55 123.56,-74"/>
<text text-anchor="middle" x="76.06" y="-62" font-family="Helvetica,sans-Serif" font-size="10.00">fatfs_platform.h</text>
</a>
</g>
</g>
<!-- Node9&#45;&gt;Node10 -->
<g id="edge11_Node000009_Node000010" class="edge">
<title>Node9&#45;&gt;Node10</title>
<g id="a_edge11_Node000009_Node000010"><a xlink:title=" ">
<path fill="none" stroke="#63b8ff" d="M75.23,-109.75C75.37,-102.03 75.59,-90.6 75.76,-81.28"/>
<polygon fill="#63b8ff" stroke="#63b8ff" points="75.9,-74.09 78.92,-81.15 75.83,-77.59 75.77,-81.09 75.77,-81.09 75.77,-81.09 75.83,-77.59 72.62,-81.03 75.9,-74.09 75.9,-74.09"/>
</a>
</g>
</g>
<!-- Node10&#45;&gt;Node2 -->
<g id="edge12_Node000010_Node000002" class="edge">
<title>Node10&#45;&gt;Node2</title>
<g id="a_edge12_Node000010_Node000002"><a xlink:title=" ">
<path fill="none" stroke="#63b8ff" d="M82.34,-54.75C88.15,-46.64 96.89,-34.44 103.73,-24.9"/>
<polygon fill="#63b8ff" stroke="#63b8ff" points="107.9,-19.09 106.38,-26.61 105.86,-21.93 103.82,-24.78 103.82,-24.78 103.82,-24.78 105.86,-21.93 101.26,-22.94 107.9,-19.09 107.9,-19.09"/>
</a>
</g>
</g>
<!-- Node12&#45;&gt;Node5 -->
<g id="edge17_Node000012_Node000005" class="edge">
<title>Node12&#45;&gt;Node5</title>
<g id="a_edge17_Node000012_Node000005"><a xlink:title=" ">
<path fill="none" stroke="#63b8ff" d="M177.41,-274.75C175.94,-266.95 173.75,-255.37 171.99,-246"/>
<polygon fill="#63b8ff" stroke="#63b8ff" points="170.68,-239.09 175.07,-245.38 171.33,-242.53 171.98,-245.97 171.98,-245.97 171.98,-245.97 171.33,-242.53 168.88,-246.55 170.68,-239.09 170.68,-239.09"/>
</a>
</g>
</g>
<!-- Node13 -->
<g id="Node000013" class="node">
<title>Node13</title>
<g id="a_Node000013"><a xlink:href="diskio_8h.html" target="_top" xlink:title=" ">
<polygon fill="white" stroke="#666666" points="264.56,-239 209.56,-239 209.56,-220 264.56,-220 264.56,-239"/>
<text text-anchor="middle" x="237.06" y="-227" font-family="Helvetica,sans-Serif" font-size="10.00">diskio.h</text>
</a>
</g>
</g>
<!-- Node12&#45;&gt;Node13 -->
<g id="edge15_Node000012_Node000013" class="edge">
<title>Node12&#45;&gt;Node13</title>
<g id="a_edge15_Node000012_Node000013"><a xlink:title=" ">
<path fill="none" stroke="#63b8ff" d="M188.38,-274.98C197.54,-266.61 211.67,-253.7 222.35,-243.95"/>
<polygon fill="#63b8ff" stroke="#63b8ff" points="227.57,-239.17 224.53,-246.22 224.99,-241.53 222.4,-243.89 222.4,-243.89 222.4,-243.89 224.99,-241.53 220.28,-241.57 227.57,-239.17 227.57,-239.17"/>
</a>
</g>
</g>
<!-- Node14 -->
<g id="Node000014" class="node">
<title>Node14</title>
<g id="a_Node000014"><a xlink:title=" ">
<polygon fill="#e0e0e0" stroke="#999999" points="344.56,-239 291.56,-239 291.56,-220 344.56,-220 344.56,-239"/>
<text text-anchor="middle" x="318.06" y="-227" font-family="Helvetica,sans-Serif" font-size="10.00">stdint.h</text>
</a>
</g>
</g>
<!-- Node12&#45;&gt;Node14 -->
<g id="edge18_Node000012_Node000014" class="edge">
<title>Node12&#45;&gt;Node14</title>
<g id="a_edge18_Node000012_Node000014"><a xlink:title=" ">
<path fill="none" stroke="#63b8ff" d="M201.39,-274.98C225.06,-265.96 262.55,-251.66 288.62,-241.72"/>
<polygon fill="#63b8ff" stroke="#63b8ff" points="295.32,-239.17 289.9,-244.61 292.05,-240.42 288.78,-241.66 288.78,-241.66 288.78,-241.66 292.05,-240.42 287.66,-238.72 295.32,-239.17 295.32,-239.17"/>
</a>
</g>
</g>
<!-- Node13&#45;&gt;Node6 -->
<g id="edge16_Node000013_Node000006" class="edge">
<title>Node13&#45;&gt;Node6</title>
<g id="a_edge16_Node000013_Node000006"><a xlink:title=" ">
<path fill="none" stroke="#63b8ff" d="M237.56,-219.75C237.99,-212.03 238.64,-200.6 239.17,-191.28"/>
<polygon fill="#63b8ff" stroke="#63b8ff" points="239.57,-184.09 242.32,-191.26 239.38,-187.58 239.18,-191.08 239.18,-191.08 239.18,-191.08 239.38,-187.58 236.03,-190.9 239.57,-184.09 239.57,-184.09"/>
</a>
</g>
</g>
<!-- Node15&#45;&gt;Node9 -->
<g id="edge20_Node000015_Node000009" class="edge">
<title>Node15&#45;&gt;Node9</title>
<g id="a_edge20_Node000015_Node000009"><a xlink:title=" ">
<path fill="none" stroke="#63b8ff" d="M75.06,-164.75C75.06,-157.03 75.06,-145.6 75.06,-136.28"/>
<polygon fill="#63b8ff" stroke="#63b8ff" points="75.06,-129.09 78.21,-136.09 75.06,-132.59 75.06,-136.09 75.06,-136.09 75.06,-136.09 75.06,-132.59 71.91,-136.09 75.06,-129.09 75.06,-129.09"/>
</a>
</g>
</g>
<!-- Node16&#45;&gt;Node3 -->
<g id="edge23_Node000016_Node000003" class="edge">
<title>Node16&#45;&gt;Node3</title>
<g id="a_edge23_Node000016_Node000003"><a xlink:title=" ">
<path fill="none" stroke="#63b8ff" d="M266.06,-329.75C266.06,-322.03 266.06,-310.6 266.06,-301.28"/>
<polygon fill="#63b8ff" stroke="#63b8ff" points="266.06,-294.09 269.21,-301.09 266.06,-297.59 266.06,-301.09 266.06,-301.09 266.06,-301.09 266.06,-297.59 262.91,-301.09 266.06,-294.09 266.06,-294.09"/>
</a>
</g>
</g>
<!-- Node16&#45;&gt;Node14 -->
<g id="edge22_Node000016_Node000014" class="edge">
<title>Node16&#45;&gt;Node14</title>
<g id="a_edge22_Node000016_Node000014"><a xlink:title=" ">
<path fill="none" stroke="#63b8ff" d="M276.67,-329.76C285.93,-321.53 298.97,-308.34 306.06,-294 313.55,-278.87 316.38,-259.59 317.44,-246.26"/>
<polygon fill="#63b8ff" stroke="#63b8ff" points="317.88,-239.18 320.59,-246.36 317.66,-242.67 317.45,-246.17 317.45,-246.17 317.45,-246.17 317.66,-242.67 314.3,-245.97 317.88,-239.18 317.88,-239.18"/>
</a>
</g>
</g>
</g>
</svg>

<g id="navigator" transform="translate(0 0)" fill="#404254">
  <rect fill="#f2f5e9" fill-opacity="0.5" stroke="#606060" stroke-width=".5" x="0" y="0" width="60" height="60"/>
  <use id="zoomplus" xlink:href="#zoomPlus" x="17" y="9" onmousedown="handleZoom(evt,'in')"/>
  <use id="zoomminus" xlink:href="#zoomMin" x="42" y="9" onmousedown="handleZoom(evt,'out')"/>
  <use id="reset" xlink:href="#resetDef" x="30" y="36" onmousedown="handleReset()"/>
   <use id="arrowup" xlink:href="#arrowUp" x="0" y="0" onmousedown="handlePan(0,-1)"/>
  <use id="arrowright" xlink:href="#arrowRight" x="0" y="0" onmousedown="handlePan(1,0)"/>
  <use id="arrowdown" xlink:href="#arrowDown" x="0" y="0" onmousedown="handlePan(0,1)"/>
  <use id="arrowleft" xlink:href="#arrowLeft" x="0" y="0" onmousedown="handlePan(-1,0)"/>
</g>
<svg viewBox="0 0 15 15" width="100%" height="30px" preserveAspectRatio="xMaxYMin meet">
 <g id="arrow_out" transform="scale(0.3 0.3)">
  <a xlink:href="sdcard_8c__incl_org.svg" target="_base">
   <rect id="button" ry="5" rx="5" y="6" x="6" height="38" width="38"
        fill="#f2f5e9" fill-opacity="0.5" stroke="#606060" stroke-width="1.0"/>
   <path id="arrow"
     d="M 11.500037,31.436501 C 11.940474,20.09759 22.043105,11.32322 32.158766,21.979434 L 37.068811,17.246167 C 37.068811,17.246167 37.088388,32 37.088388,32 L 22.160133,31.978069 C 22.160133,31.978069 26.997745,27.140456 26.997745,27.140456 C 18.528582,18.264221 13.291696,25.230495 11.500037,31.436501 z"
     style="fill:#404040;"/>
  </a>
 </g>
</svg>

<style type='text/css'>
<![CDATA[
[data-mouse-over-selected='false'] { opacity: 0.7; }
[data-mouse-over-selected='true']  { opacity: 1.0; }
]]>
</style>
<script type="application/ecmascript"><![CDATA[
document.addEventListener('DOMContentLoaded', (event) => {
  highlightEdges();
  highlightAdjacentNodes();
});
]]></script>
</svg>
