<?xml version="1.0" encoding="UTF-8" standalone="no"?>
<!DOCTYPE svg PUBLIC "-//W3C//DTD SVG 1.1//EN"
 "http://www.w3.org/Graphics/SVG/1.1/DTD/svg11.dtd">
<!-- Generated by graphviz version 2.43.0 (0)
 -->
<!-- Title: Core/Src/top_board/peripherals/speaker.c Pages: 1 -->
<svg width="368pt" height="247pt"
 viewBox="0.00 0.00 368.00 247.00" xmlns="http://www.w3.org/2000/svg" xmlns:xlink="http://www.w3.org/1999/xlink">
<g id="graph0" class="graph" transform="scale(1 1) rotate(0) translate(4 243)">
<title>Core/Src/top_board/peripherals/speaker.c</title>
<!-- Node1 -->
<g id="Node000001" class="node">
<title>Node1</title>
<g id="a_Node000001"><a xlink:title=" ">
<polygon fill="#999999" stroke="#666666" points="339.5,-239 124.5,-239 124.5,-220 339.5,-220 339.5,-239"/>
<text text-anchor="middle" x="232" y="-227" font-family="Helvetica,sans-Serif" font-size="10.00">Core/Src/top_board/peripherals/speaker.c</text>
</a>
</g>
</g>
<!-- Node2 -->
<g id="Node000002" class="node">
<title>Node2</title>
<g id="a_Node000002"><a xlink:href="speaker_8h.html" target="_top" xlink:title=" ">
<polygon fill="white" stroke="#666666" points="165.5,-184 102.5,-184 102.5,-165 165.5,-165 165.5,-184"/>
<text text-anchor="middle" x="134" y="-172" font-family="Helvetica,sans-Serif" font-size="10.00">speaker.h</text>
</a>
</g>
</g>
<!-- Node1&#45;&gt;Node2 -->
<g id="edge1_Node000001_Node000002" class="edge">
<title>Node1&#45;&gt;Node2</title>
<g id="a_edge1_Node000001_Node000002"><a xlink:title=" ">
<path fill="none" stroke="#63b8ff" d="M216.25,-219.98C200.06,-211.23 174.7,-197.51 156.42,-187.62"/>
<polygon fill="#63b8ff" stroke="#63b8ff" points="150.03,-184.17 157.69,-184.73 153.11,-185.84 156.19,-187.5 156.19,-187.5 156.19,-187.5 153.11,-185.84 154.69,-190.27 150.03,-184.17 150.03,-184.17"/>
</a>
</g>
</g>
<!-- Node7 -->
<g id="Node000007" class="node">
<title>Node7</title>
<g id="a_Node000007"><a xlink:title=" ">
<polygon fill="#e0e0e0" stroke="#999999" points="280,-184 184,-184 184,-165 280,-165 280,-184"/>
<text text-anchor="middle" x="232" y="-172" font-family="Helvetica,sans-Serif" font-size="10.00">peripheral_util.h</text>
</a>
</g>
</g>
<!-- Node1&#45;&gt;Node7 -->
<g id="edge9_Node000001_Node000007" class="edge">
<title>Node1&#45;&gt;Node7</title>
<g id="a_edge9_Node000001_Node000007"><a xlink:title=" ">
<path fill="none" stroke="#63b8ff" d="M232,-219.75C232,-212.03 232,-200.6 232,-191.28"/>
<polygon fill="#63b8ff" stroke="#63b8ff" points="232,-184.09 235.15,-191.09 232,-187.59 232,-191.09 232,-191.09 232,-191.09 232,-187.59 228.85,-191.09 232,-184.09 232,-184.09"/>
</a>
</g>
</g>
<!-- Node8 -->
<g id="Node000008" class="node">
<title>Node8</title>
<g id="a_Node000008"><a xlink:title=" ">
<polygon fill="#e0e0e0" stroke="#999999" points="360,-184 298,-184 298,-165 360,-165 360,-184"/>
<text text-anchor="middle" x="329" y="-172" font-family="Helvetica,sans-Serif" font-size="10.00">logging.h</text>
</a>
</g>
</g>
<!-- Node1&#45;&gt;Node8 -->
<g id="edge10_Node000001_Node000008" class="edge">
<title>Node1&#45;&gt;Node8</title>
<g id="a_edge10_Node000001_Node000008"><a xlink:title=" ">
<path fill="none" stroke="#63b8ff" d="M247.58,-219.98C263.61,-211.23 288.72,-197.51 306.81,-187.62"/>
<polygon fill="#63b8ff" stroke="#63b8ff" points="313.13,-184.17 308.5,-190.29 310.06,-185.85 306.99,-187.53 306.99,-187.53 306.99,-187.53 310.06,-185.85 305.48,-184.76 313.13,-184.17 313.13,-184.17"/>
</a>
</g>
</g>
<!-- Node3 -->
<g id="Node000003" class="node">
<title>Node3</title>
<g id="a_Node000003"><a xlink:href="REM__RobotMusicCommand_8h.html" target="_top" xlink:title=" ">
<polygon fill="white" stroke="#666666" points="160,-129 0,-129 0,-110 160,-110 160,-129"/>
<text text-anchor="middle" x="80" y="-117" font-family="Helvetica,sans-Serif" font-size="10.00">REM_RobotMusicCommand.h</text>
</a>
</g>
</g>
<!-- Node2&#45;&gt;Node3 -->
<g id="edge2_Node000002_Node000003" class="edge">
<title>Node2&#45;&gt;Node3</title>
<g id="a_edge2_Node000002_Node000003"><a xlink:title=" ">
<path fill="none" stroke="#63b8ff" d="M125.08,-164.75C116.59,-156.41 103.68,-143.74 93.85,-134.09"/>
<polygon fill="#63b8ff" stroke="#63b8ff" points="88.75,-129.09 95.95,-131.74 91.25,-131.54 93.75,-133.99 93.75,-133.99 93.75,-133.99 91.25,-131.54 91.54,-136.24 88.75,-129.09 88.75,-129.09"/>
</a>
</g>
</g>
<!-- Node5 -->
<g id="Node000005" class="node">
<title>Node5</title>
<g id="a_Node000005"><a xlink:title=" ">
<polygon fill="#e0e0e0" stroke="#999999" points="181.5,-19 128.5,-19 128.5,0 181.5,0 181.5,-19"/>
<text text-anchor="middle" x="155" y="-7" font-family="Helvetica,sans-Serif" font-size="10.00">stdint.h</text>
</a>
</g>
</g>
<!-- Node2&#45;&gt;Node5 -->
<g id="edge8_Node000002_Node000005" class="edge">
<title>Node2&#45;&gt;Node5</title>
<g id="a_edge8_Node000002_Node000005"><a xlink:title=" ">
<path fill="none" stroke="#63b8ff" d="M143.88,-164.75C152.39,-156.5 164.05,-143.3 169,-129 181.29,-93.49 169.14,-48.82 161.01,-25.79"/>
<polygon fill="#63b8ff" stroke="#63b8ff" points="158.55,-19.11 163.92,-24.59 159.76,-22.39 160.97,-25.68 160.97,-25.68 160.97,-25.68 159.76,-22.39 158.01,-26.77 158.55,-19.11 158.55,-19.11"/>
</a>
</g>
</g>
<!-- Node4 -->
<g id="Node000004" class="node">
<title>Node4</title>
<g id="a_Node000004"><a xlink:title=" ">
<polygon fill="#e0e0e0" stroke="#999999" points="66,-19 4,-19 4,0 66,0 66,-19"/>
<text text-anchor="middle" x="35" y="-7" font-family="Helvetica,sans-Serif" font-size="10.00">stdbool.h</text>
</a>
</g>
</g>
<!-- Node3&#45;&gt;Node4 -->
<g id="edge3_Node000003_Node000004" class="edge">
<title>Node3&#45;&gt;Node4</title>
<g id="a_edge3_Node000003_Node000004"><a xlink:title=" ">
<path fill="none" stroke="#63b8ff" d="M57.22,-109.89C41.97,-102.79 23.08,-91.08 14,-74 5.57,-58.14 14.99,-38.26 23.77,-25.01"/>
<polygon fill="#63b8ff" stroke="#63b8ff" points="27.95,-19.09 26.49,-26.62 25.93,-21.95 23.92,-24.81 23.92,-24.81 23.92,-24.81 25.93,-21.95 21.34,-22.99 27.95,-19.09 27.95,-19.09"/>
</a>
</g>
</g>
<!-- Node3&#45;&gt;Node5 -->
<g id="edge4_Node000003_Node000005" class="edge">
<title>Node3&#45;&gt;Node5</title>
<g id="a_edge4_Node000003_Node000005"><a xlink:title=" ">
<path fill="none" stroke="#63b8ff" d="M95.48,-109.86C108.13,-102.05 125.56,-89.43 136,-74 145.81,-59.5 150.67,-39.81 153,-26.22"/>
<polygon fill="#63b8ff" stroke="#63b8ff" points="154.1,-19 156.16,-26.4 153.57,-22.46 153.05,-25.92 153.05,-25.92 153.05,-25.92 153.57,-22.46 149.93,-25.45 154.1,-19 154.1,-19"/>
</a>
</g>
</g>
<!-- Node6 -->
<g id="Node000006" class="node">
<title>Node6</title>
<g id="a_Node000006"><a xlink:href="REM__BaseTypes_8h.html" target="_top" xlink:title=" ">
<polygon fill="white" stroke="#666666" points="127,-74 23,-74 23,-55 127,-55 127,-74"/>
<text text-anchor="middle" x="75" y="-62" font-family="Helvetica,sans-Serif" font-size="10.00">REM_BaseTypes.h</text>
</a>
</g>
</g>
<!-- Node3&#45;&gt;Node6 -->
<g id="edge5_Node000003_Node000006" class="edge">
<title>Node3&#45;&gt;Node6</title>
<g id="a_edge5_Node000003_Node000006"><a xlink:title=" ">
<path fill="none" stroke="#63b8ff" d="M79.17,-109.75C78.45,-102.03 77.37,-90.6 76.49,-81.28"/>
<polygon fill="#63b8ff" stroke="#63b8ff" points="75.81,-74.09 79.6,-80.76 76.14,-77.57 76.47,-81.06 76.47,-81.06 76.47,-81.06 76.14,-77.57 73.33,-81.35 75.81,-74.09 75.81,-74.09"/>
</a>
</g>
</g>
<!-- Node6&#45;&gt;Node4 -->
<g id="edge7_Node000006_Node000004" class="edge">
<title>Node6&#45;&gt;Node4</title>
<g id="a_edge7_Node000006_Node000004"><a xlink:title=" ">
<path fill="none" stroke="#63b8ff" d="M68.39,-54.75C62.28,-46.64 53.07,-34.44 45.87,-24.9"/>
<polygon fill="#63b8ff" stroke="#63b8ff" points="41.48,-19.09 48.21,-22.78 43.59,-21.88 45.7,-24.68 45.7,-24.68 45.7,-24.68 43.59,-21.88 43.18,-26.57 41.48,-19.09 41.48,-19.09"/>
</a>
</g>
</g>
<!-- Node6&#45;&gt;Node5 -->
<g id="edge6_Node000006_Node000005" class="edge">
<title>Node6&#45;&gt;Node5</title>
<g id="a_edge6_Node000006_Node000005"><a xlink:title=" ">
<path fill="none" stroke="#63b8ff" d="M87.85,-54.98C100.84,-46.38 121.05,-32.99 135.91,-23.15"/>
<polygon fill="#63b8ff" stroke="#63b8ff" points="141.91,-19.17 137.82,-25.66 138.99,-21.1 136.08,-23.04 136.08,-23.04 136.08,-23.04 138.99,-21.1 134.34,-20.41 141.91,-19.17 141.91,-19.17"/>
</a>
</g>
</g>
</g>
</svg>
