<?xml version="1.0" encoding="UTF-8" standalone="no"?>
<!DOCTYPE svg PUBLIC "-//W3C//DTD SVG 1.1//EN"
 "http://www.w3.org/Graphics/SVG/1.1/DTD/svg11.dtd">
<!-- Generated by graphviz version 2.43.0 (0)
 -->
<!-- Title: FIL Pages: 1 -->
<svg width="54pt" height="159pt"
 viewBox="0.00 0.00 54.00 159.00" xmlns="http://www.w3.org/2000/svg" xmlns:xlink="http://www.w3.org/1999/xlink">

<svg id="main" version="1.1" xmlns="http://www.w3.org/2000/svg" xmlns:xlink="http://www.w3.org/1999/xlink" xml:space="preserve" onload="init(evt)">
<style type="text/css"><![CDATA[
.node, .edge {opacity: 0.7;}
.node.selected, .edge.selected {opacity: 1;}
.edge:hover path { stroke: red; }
.edge:hover polygon { stroke: red; fill: red; }
]]></style>
<script type="application/ecmascript" xlink:href="svg.min.js"/>
<svg id="graph" class="graph">
<g id="graph0" class="graph" transform="scale(1 1) rotate(0) translate(4 155)">
<title>FIL</title>
<!-- Node1 -->
<g id="Node000001" class="node">
<title>Node1</title>
<g id="a_Node000001"><a xlink:title=" ">
<polygon fill="#999999" stroke="#666666" points="38.5,-19 7.5,-19 7.5,0 38.5,0 38.5,-19"/>
<text text-anchor="middle" x="23" y="-7" font-family="Helvetica,sans-Serif" font-size="10.00">FIL</text>
</a>
</g>
</g>
<!-- Node2 -->
<g id="Node000002" class="node">
<title>Node2</title>
<g id="a_Node000002"><a xlink:href="struct__FDID.html" target="_top" xlink:title=" ">
<polygon fill="white" stroke="#666666" points="46,-85 0,-85 0,-66 46,-66 46,-85"/>
<text text-anchor="middle" x="23" y="-73" font-family="Helvetica,sans-Serif" font-size="10.00">_FDID</text>
</a>
</g>
</g>
<!-- Node2&#45;&gt;Node1 -->
<g id="edge1_Node000001_Node000002" class="edge">
<title>Node2&#45;&gt;Node1</title>
<g id="a_edge1_Node000001_Node000002"><a xlink:title=" ">
<path fill="none" stroke="#9a32cd" stroke-dasharray="5,2" d="M23,-58.83C23,-46.44 23,-29.59 23,-19.41"/>
<polygon fill="#9a32cd" stroke="#9a32cd" points="23,-65.87 19.85,-58.87 23,-62.37 23,-58.87 23,-58.87 23,-58.87 23,-62.37 26.15,-58.87 23,-65.87 23,-65.87"/>
</a>
</g>
<text text-anchor="middle" x="32.5" y="-40" font-family="Helvetica,sans-Serif" font-size="10.00" fill="grey"> obj</text>
</g>
<!-- Node3 -->
<g id="Node000003" class="node">
<title>Node3</title>
<g id="a_Node000003"><a xlink:href="structFATFS.html" target="_top" xlink:title=" ">
<polygon fill="white" stroke="#666666" points="45,-151 1,-151 1,-132 45,-132 45,-151"/>
<text text-anchor="middle" x="23" y="-139" font-family="Helvetica,sans-Serif" font-size="10.00">FATFS</text>
</a>
</g>
</g>
<!-- Node3&#45;&gt;Node2 -->
<g id="edge2_Node000002_Node000003" class="edge">
<title>Node3&#45;&gt;Node2</title>
<g id="a_edge2_Node000002_Node000003"><a xlink:title=" ">
<path fill="none" stroke="#9a32cd" stroke-dasharray="5,2" d="M23,-124.83C23,-112.44 23,-95.59 23,-85.41"/>
<polygon fill="#9a32cd" stroke="#9a32cd" points="23,-131.87 19.85,-124.87 23,-128.37 23,-124.87 23,-124.87 23,-124.87 23,-128.37 26.15,-124.87 23,-131.87 23,-131.87"/>
</a>
</g>
<text text-anchor="middle" x="29.5" y="-106" font-family="Helvetica,sans-Serif" font-size="10.00" fill="grey"> fs</text>
</g>
</g>
</svg>
</svg>

<style type='text/css'>
<![CDATA[
[data-mouse-over-selected='false'] { opacity: 0.7; }
[data-mouse-over-selected='true']  { opacity: 1.0; }
]]>
</style>
<script type="application/ecmascript"><![CDATA[
document.addEventListener('DOMContentLoaded', (event) => {
  highlightEdges();
  highlightAdjacentNodes();
});
]]></script>
</svg>
