<?xml version="1.0" encoding="UTF-8" standalone="no"?>
<!DOCTYPE svg PUBLIC "-//W3C//DTD SVG 1.1//EN"
 "http://www.w3.org/Graphics/SVG/1.1/DTD/svg11.dtd">
<!-- Generated by graphviz version 2.43.0 (0)
 -->
<!-- Title: Core/Src/top_board/main.c Pages: 1 -->
<svg width="318pt" height="412pt"
 viewBox="0.00 0.00 318.00 412.00" xmlns="http://www.w3.org/2000/svg" xmlns:xlink="http://www.w3.org/1999/xlink">

<svg id="main" version="1.1" xmlns="http://www.w3.org/2000/svg" xmlns:xlink="http://www.w3.org/1999/xlink" xml:space="preserve" onload="init(evt)">
<style type="text/css"><![CDATA[
.node, .edge {opacity: 0.7;}
.node.selected, .edge.selected {opacity: 1;}
.edge:hover path { stroke: red; }
.edge:hover polygon { stroke: red; fill: red; }
]]></style>
<script type="application/ecmascript" xlink:href="svg.min.js"/>
<svg id="graph" class="graph">
<g id="graph0" class="graph" transform="scale(1 1) rotate(0) translate(4 408)">
<title>Core/Src/top_board/main.c</title>
<!-- Node1 -->
<g id="Node000001" class="node">
<title>Node1</title>
<g id="a_Node000001"><a xlink:title=": Main program body">
<polygon fill="#999999" stroke="#666666" points="145,-404 0,-404 0,-385 145,-385 145,-404"/>
<text text-anchor="middle" x="72.5" y="-392" font-family="Helvetica,sans-Serif" font-size="10.00">Core/Src/top_board/main.c</text>
</a>
</g>
</g>
<!-- Node2 -->
<g id="Node000002" class="node">
<title>Node2</title>
<g id="a_Node000002"><a xlink:title=" ">
<polygon fill="#e0e0e0" stroke="#999999" points="72.5,-129 22.5,-129 22.5,-110 72.5,-110 72.5,-129"/>
<text text-anchor="middle" x="47.5" y="-117" font-family="Helvetica,sans-Serif" font-size="10.00">main.h</text>
</a>
</g>
</g>
<!-- Node1&#45;&gt;Node2 -->
<g id="edge1_Node000001_Node000002" class="edge">
<title>Node1&#45;&gt;Node2</title>
<g id="a_edge1_Node000001_Node000002"><a xlink:title=" ">
<path fill="none" stroke="#63b8ff" d="M68.99,-384.99C61.9,-366.97 46.5,-323.49 46.5,-285.5 46.5,-285.5 46.5,-285.5 46.5,-228.5 46.5,-195.75 46.97,-157.41 47.26,-136.35"/>
<polygon fill="#63b8ff" stroke="#63b8ff" points="47.37,-129.18 50.41,-136.22 47.31,-132.68 47.26,-136.18 47.26,-136.18 47.26,-136.18 47.31,-132.68 44.11,-136.13 47.37,-129.18 47.37,-129.18"/>
</a>
</g>
</g>
<!-- Node3 -->
<g id="Node000003" class="node">
<title>Node3</title>
<g id="a_Node000003"><a xlink:href="fatfs_8h.html" target="_top" xlink:title="Header for fatfs applications.">
<polygon fill="white" stroke="#666666" points="154.5,-349 106.5,-349 106.5,-330 154.5,-330 154.5,-349"/>
<text text-anchor="middle" x="130.5" y="-337" font-family="Helvetica,sans-Serif" font-size="10.00">fatfs.h</text>
</a>
</g>
</g>
<!-- Node1&#45;&gt;Node3 -->
<g id="edge2_Node000001_Node000003" class="edge">
<title>Node1&#45;&gt;Node3</title>
<g id="a_edge2_Node000001_Node000003"><a xlink:title=" ">
<path fill="none" stroke="#63b8ff" d="M81.82,-384.98C90.98,-376.61 105.11,-363.7 115.79,-353.95"/>
<polygon fill="#63b8ff" stroke="#63b8ff" points="121.01,-349.17 117.97,-356.22 118.43,-351.53 115.84,-353.89 115.84,-353.89 115.84,-353.89 118.43,-351.53 113.72,-351.57 121.01,-349.17 121.01,-349.17"/>
</a>
</g>
</g>
<!-- Node4 -->
<g id="Node000004" class="node">
<title>Node4</title>
<g id="a_Node000004"><a xlink:href="ff_8h.html" target="_top" xlink:title=" ">
<polygon fill="white" stroke="#666666" points="117.5,-239 85.5,-239 85.5,-220 117.5,-220 117.5,-239"/>
<text text-anchor="middle" x="101.5" y="-227" font-family="Helvetica,sans-Serif" font-size="10.00">ff.h</text>
</a>
</g>
</g>
<!-- Node3&#45;&gt;Node4 -->
<g id="edge3_Node000003_Node000004" class="edge">
<title>Node3&#45;&gt;Node4</title>
<g id="a_edge3_Node000003_Node000004"><a xlink:title=" ">
<path fill="none" stroke="#63b8ff" d="M128.19,-329.97C125.78,-321.01 121.86,-306.52 118.5,-294 114.09,-277.6 109.07,-258.81 105.63,-245.95"/>
<polygon fill="#63b8ff" stroke="#63b8ff" points="103.8,-239.13 108.66,-245.08 104.71,-242.51 105.61,-245.89 105.61,-245.89 105.61,-245.89 104.71,-242.51 102.57,-246.7 103.8,-239.13 103.8,-239.13"/>
</a>
</g>
</g>
<!-- Node11 -->
<g id="Node000011" class="node">
<title>Node11</title>
<g id="a_Node000011"><a xlink:href="ff__gen__drv_8h.html" target="_top" xlink:title="Header for ff_gen_drv.c module.">
<polygon fill="white" stroke="#666666" points="203.5,-294 127.5,-294 127.5,-275 203.5,-275 203.5,-294"/>
<text text-anchor="middle" x="165.5" y="-282" font-family="Helvetica,sans-Serif" font-size="10.00">ff_gen_drv.h</text>
</a>
</g>
</g>
<!-- Node3&#45;&gt;Node11 -->
<g id="edge13_Node000003_Node000011" class="edge">
<title>Node3&#45;&gt;Node11</title>
<g id="a_edge13_Node000003_Node000011"><a xlink:title=" ">
<path fill="none" stroke="#63b8ff" d="M136.28,-329.75C141.58,-321.72 149.54,-309.67 155.81,-300.18"/>
<polygon fill="#63b8ff" stroke="#63b8ff" points="159.83,-294.09 158.6,-301.67 157.9,-297.01 155.97,-299.93 155.97,-299.93 155.97,-299.93 157.9,-297.01 153.34,-298.19 159.83,-294.09 159.83,-294.09"/>
</a>
</g>
</g>
<!-- Node14 -->
<g id="Node000014" class="node">
<title>Node14</title>
<g id="a_Node000014"><a xlink:href="sd__diskio_8h.html" target="_top" xlink:title="Header for sd_diskio.c module.">
<polygon fill="white" stroke="#666666" points="310,-294 239,-294 239,-275 310,-275 310,-294"/>
<text text-anchor="middle" x="274.5" y="-282" font-family="Helvetica,sans-Serif" font-size="10.00">sd_diskio.h</text>
</a>
</g>
</g>
<!-- Node3&#45;&gt;Node14 -->
<g id="edge18_Node000003_Node000014" class="edge">
<title>Node3&#45;&gt;Node14</title>
<g id="a_edge18_Node000003_Node000014"><a xlink:title=" ">
<path fill="none" stroke="#63b8ff" d="M153.64,-329.98C178.26,-320.92 217.33,-306.54 244.35,-296.6"/>
<polygon fill="#63b8ff" stroke="#63b8ff" points="250.94,-294.17 245.46,-299.54 247.66,-295.38 244.37,-296.59 244.37,-296.59 244.37,-296.59 247.66,-295.38 243.29,-293.63 250.94,-294.17 250.94,-294.17"/>
</a>
</g>
</g>
<!-- Node5 -->
<g id="Node000005" class="node">
<title>Node5</title>
<g id="a_Node000005"><a xlink:href="integer_8h.html" target="_top" xlink:title=" ">
<polygon fill="white" stroke="#666666" points="205,-184 146,-184 146,-165 205,-165 205,-184"/>
<text text-anchor="middle" x="175.5" y="-172" font-family="Helvetica,sans-Serif" font-size="10.00">integer.h</text>
</a>
</g>
</g>
<!-- Node4&#45;&gt;Node5 -->
<g id="edge4_Node000004_Node000005" class="edge">
<title>Node4&#45;&gt;Node5</title>
<g id="a_edge4_Node000004_Node000005"><a xlink:title=" ">
<path fill="none" stroke="#63b8ff" d="M113.39,-219.98C125.29,-211.46 143.76,-198.23 157.47,-188.41"/>
<polygon fill="#63b8ff" stroke="#63b8ff" points="163.39,-184.17 159.54,-190.81 160.55,-186.21 157.7,-188.25 157.7,-188.25 157.7,-188.25 160.55,-186.21 155.87,-185.69 163.39,-184.17 163.39,-184.17"/>
</a>
</g>
</g>
<!-- Node6 -->
<g id="Node000006" class="node">
<title>Node6</title>
<g id="a_Node000006"><a xlink:href="ffconf_8h.html" target="_top" xlink:title=" ">
<polygon fill="white" stroke="#666666" points="128,-184 75,-184 75,-165 128,-165 128,-184"/>
<text text-anchor="middle" x="101.5" y="-172" font-family="Helvetica,sans-Serif" font-size="10.00">ffconf.h</text>
</a>
</g>
</g>
<!-- Node4&#45;&gt;Node6 -->
<g id="edge5_Node000004_Node000006" class="edge">
<title>Node4&#45;&gt;Node6</title>
<g id="a_edge5_Node000004_Node000006"><a xlink:title=" ">
<path fill="none" stroke="#63b8ff" d="M101.5,-219.75C101.5,-212.03 101.5,-200.6 101.5,-191.28"/>
<polygon fill="#63b8ff" stroke="#63b8ff" points="101.5,-184.09 104.65,-191.09 101.5,-187.59 101.5,-191.09 101.5,-191.09 101.5,-191.09 101.5,-187.59 98.35,-191.09 101.5,-184.09 101.5,-184.09"/>
</a>
</g>
</g>
<!-- Node6&#45;&gt;Node2 -->
<g id="edge6_Node000006_Node000002" class="edge">
<title>Node6&#45;&gt;Node2</title>
<g id="a_edge6_Node000006_Node000002"><a xlink:title=" ">
<path fill="none" stroke="#63b8ff" d="M92.58,-164.75C84.09,-156.41 71.18,-143.74 61.35,-134.09"/>
<polygon fill="#63b8ff" stroke="#63b8ff" points="56.25,-129.09 63.45,-131.74 58.75,-131.54 61.25,-133.99 61.25,-133.99 61.25,-133.99 58.75,-131.54 59.04,-136.24 56.25,-129.09 56.25,-129.09"/>
</a>
</g>
</g>
<!-- Node7 -->
<g id="Node000007" class="node">
<title>Node7</title>
<g id="a_Node000007"><a xlink:title=" ">
<polygon fill="#e0e0e0" stroke="#999999" points="219.5,-19 121.5,-19 121.5,0 219.5,0 219.5,-19"/>
<text text-anchor="middle" x="170.5" y="-7" font-family="Helvetica,sans-Serif" font-size="10.00">stm32f7xx_hal.h</text>
</a>
</g>
</g>
<!-- Node6&#45;&gt;Node7 -->
<g id="edge7_Node000006_Node000007" class="edge">
<title>Node6&#45;&gt;Node7</title>
<g id="a_edge7_Node000006_Node000007"><a xlink:title=" ">
<path fill="none" stroke="#63b8ff" d="M103.41,-164.69C106.25,-152.27 112.03,-128.98 119.5,-110 131.78,-78.79 150.72,-44.38 161.73,-25.31"/>
<polygon fill="#63b8ff" stroke="#63b8ff" points="165.4,-19.02 164.6,-26.65 163.64,-22.04 161.88,-25.06 161.88,-25.06 161.88,-25.06 163.64,-22.04 159.15,-23.48 165.4,-19.02 165.4,-19.02"/>
</a>
</g>
</g>
<!-- Node8 -->
<g id="Node000008" class="node">
<title>Node8</title>
<g id="a_Node000008"><a xlink:href="bsp__driver__sd_8h.html" target="_top" xlink:title="This file contains the common defines and functions prototypes for the bsp_driver_sd....">
<polygon fill="white" stroke="#666666" points="293,-129 200,-129 200,-110 293,-110 293,-129"/>
<text text-anchor="middle" x="246.5" y="-117" font-family="Helvetica,sans-Serif" font-size="10.00">bsp_driver_sd.h</text>
</a>
</g>
</g>
<!-- Node6&#45;&gt;Node8 -->
<g id="edge8_Node000006_Node000008" class="edge">
<title>Node6&#45;&gt;Node8</title>
<g id="a_edge8_Node000006_Node000008"><a xlink:title=" ">
<path fill="none" stroke="#63b8ff" d="M124.8,-164.98C149.59,-155.92 188.93,-141.54 216.14,-131.6"/>
<polygon fill="#63b8ff" stroke="#63b8ff" points="222.78,-129.17 217.29,-134.53 219.49,-130.37 216.2,-131.57 216.2,-131.57 216.2,-131.57 219.49,-130.37 215.12,-128.61 222.78,-129.17 222.78,-129.17"/>
</a>
</g>
</g>
<!-- Node10 -->
<g id="Node000010" class="node">
<title>Node10</title>
<g id="a_Node000010"><a xlink:title=" ">
<polygon fill="#e0e0e0" stroke="#999999" points="182,-129 129,-129 129,-110 182,-110 182,-129"/>
<text text-anchor="middle" x="155.5" y="-117" font-family="Helvetica,sans-Serif" font-size="10.00">stdlib.h</text>
</a>
</g>
</g>
<!-- Node6&#45;&gt;Node10 -->
<g id="edge12_Node000006_Node000010" class="edge">
<title>Node6&#45;&gt;Node10</title>
<g id="a_edge12_Node000006_Node000010"><a xlink:title=" ">
<path fill="none" stroke="#63b8ff" d="M110.42,-164.75C118.91,-156.41 131.82,-143.74 141.65,-134.09"/>
<polygon fill="#63b8ff" stroke="#63b8ff" points="146.75,-129.09 143.96,-136.24 144.25,-131.54 141.75,-133.99 141.75,-133.99 141.75,-133.99 144.25,-131.54 139.55,-131.74 146.75,-129.09 146.75,-129.09"/>
</a>
</g>
</g>
<!-- Node8&#45;&gt;Node7 -->
<g id="edge9_Node000008_Node000007" class="edge">
<title>Node8&#45;&gt;Node7</title>
<g id="a_edge9_Node000008_Node000007"><a xlink:title=" ">
<path fill="none" stroke="#63b8ff" d="M231.33,-109.98C218.7,-102.16 201.12,-89.45 190.5,-74 180.54,-59.51 175.35,-39.81 172.79,-26.22"/>
<polygon fill="#63b8ff" stroke="#63b8ff" points="171.56,-19 175.84,-25.38 172.15,-22.46 172.73,-25.91 172.73,-25.91 172.73,-25.91 172.15,-22.46 169.63,-26.43 171.56,-19 171.56,-19"/>
</a>
</g>
</g>
<!-- Node9 -->
<g id="Node000009" class="node">
<title>Node9</title>
<g id="a_Node000009"><a xlink:href="fatfs__platform_8h.html" target="_top" xlink:title=": fatfs_platform header file">
<polygon fill="white" stroke="#666666" points="294,-74 199,-74 199,-55 294,-55 294,-74"/>
<text text-anchor="middle" x="246.5" y="-62" font-family="Helvetica,sans-Serif" font-size="10.00">fatfs_platform.h</text>
</a>
</g>
</g>
<!-- Node8&#45;&gt;Node9 -->
<g id="edge10_Node000008_Node000009" class="edge">
<title>Node8&#45;&gt;Node9</title>
<g id="a_edge10_Node000008_Node000009"><a xlink:title=" ">
<path fill="none" stroke="#63b8ff" d="M246.5,-109.75C246.5,-102.03 246.5,-90.6 246.5,-81.28"/>
<polygon fill="#63b8ff" stroke="#63b8ff" points="246.5,-74.09 249.65,-81.09 246.5,-77.59 246.5,-81.09 246.5,-81.09 246.5,-81.09 246.5,-77.59 243.35,-81.09 246.5,-74.09 246.5,-74.09"/>
</a>
</g>
</g>
<!-- Node9&#45;&gt;Node7 -->
<g id="edge11_Node000009_Node000007" class="edge">
<title>Node9&#45;&gt;Node7</title>
<g id="a_edge11_Node000009_Node000007"><a xlink:title=" ">
<path fill="none" stroke="#63b8ff" d="M234.29,-54.98C222.06,-46.46 203.09,-33.23 189.02,-23.41"/>
<polygon fill="#63b8ff" stroke="#63b8ff" points="182.93,-19.17 190.48,-20.59 185.8,-21.17 188.67,-23.17 188.67,-23.17 188.67,-23.17 185.8,-21.17 186.87,-25.76 182.93,-19.17 182.93,-19.17"/>
</a>
</g>
</g>
<!-- Node11&#45;&gt;Node4 -->
<g id="edge16_Node000011_Node000004" class="edge">
<title>Node11&#45;&gt;Node4</title>
<g id="a_edge16_Node000011_Node000004"><a xlink:title=" ">
<path fill="none" stroke="#63b8ff" d="M155.22,-274.98C145.01,-266.54 129.23,-253.47 117.41,-243.68"/>
<polygon fill="#63b8ff" stroke="#63b8ff" points="111.97,-239.17 119.37,-241.21 114.67,-241.4 117.36,-243.64 117.36,-243.64 117.36,-243.64 114.67,-241.4 115.35,-246.06 111.97,-239.17 111.97,-239.17"/>
</a>
</g>
</g>
<!-- Node12 -->
<g id="Node000012" class="node">
<title>Node12</title>
<g id="a_Node000012"><a xlink:href="diskio_8h.html" target="_top" xlink:title=" ">
<polygon fill="white" stroke="#666666" points="191,-239 136,-239 136,-220 191,-220 191,-239"/>
<text text-anchor="middle" x="163.5" y="-227" font-family="Helvetica,sans-Serif" font-size="10.00">diskio.h</text>
</a>
</g>
</g>
<!-- Node11&#45;&gt;Node12 -->
<g id="edge14_Node000011_Node000012" class="edge">
<title>Node11&#45;&gt;Node12</title>
<g id="a_edge14_Node000011_Node000012"><a xlink:title=" ">
<path fill="none" stroke="#63b8ff" d="M165.17,-274.75C164.88,-267.03 164.45,-255.6 164.1,-246.28"/>
<polygon fill="#63b8ff" stroke="#63b8ff" points="163.82,-239.09 167.24,-245.97 163.96,-242.59 164.09,-246.08 164.09,-246.08 164.09,-246.08 163.96,-242.59 160.94,-246.2 163.82,-239.09 163.82,-239.09"/>
</a>
</g>
</g>
<!-- Node13 -->
<g id="Node000013" class="node">
<title>Node13</title>
<g id="a_Node000013"><a xlink:title=" ">
<polygon fill="#e0e0e0" stroke="#999999" points="262,-239 209,-239 209,-220 262,-220 262,-239"/>
<text text-anchor="middle" x="235.5" y="-227" font-family="Helvetica,sans-Serif" font-size="10.00">stdint.h</text>
</a>
</g>
</g>
<!-- Node11&#45;&gt;Node13 -->
<g id="edge17_Node000011_Node000013" class="edge">
<title>Node11&#45;&gt;Node13</title>
<g id="a_edge17_Node000011_Node000013"><a xlink:title=" ">
<path fill="none" stroke="#63b8ff" d="M176.75,-274.98C188.01,-266.46 205.48,-253.23 218.45,-243.41"/>
<polygon fill="#63b8ff" stroke="#63b8ff" points="224.05,-239.17 220.37,-245.91 221.26,-241.28 218.47,-243.4 218.47,-243.4 218.47,-243.4 221.26,-241.28 216.57,-240.88 224.05,-239.17 224.05,-239.17"/>
</a>
</g>
</g>
<!-- Node12&#45;&gt;Node5 -->
<g id="edge15_Node000012_Node000005" class="edge">
<title>Node12&#45;&gt;Node5</title>
<g id="a_edge15_Node000012_Node000005"><a xlink:title=" ">
<path fill="none" stroke="#63b8ff" d="M165.48,-219.75C167.25,-211.95 169.87,-200.37 171.99,-191"/>
<polygon fill="#63b8ff" stroke="#63b8ff" points="173.56,-184.09 175.08,-191.61 172.78,-187.5 172.01,-190.92 172.01,-190.92 172.01,-190.92 172.78,-187.5 168.94,-190.22 173.56,-184.09 173.56,-184.09"/>
</a>
</g>
</g>
<!-- Node14&#45;&gt;Node8 -->
<g id="edge19_Node000014_Node000008" class="edge">
<title>Node14&#45;&gt;Node8</title>
<g id="a_edge19_Node000014_Node000008"><a xlink:title=" ">
<path fill="none" stroke="#63b8ff" d="M274.63,-274.82C274.7,-262.54 274.37,-239.43 271.5,-220 267.04,-189.82 257.36,-155.49 251.44,-136.07"/>
<polygon fill="#63b8ff" stroke="#63b8ff" points="249.3,-129.17 254.38,-134.92 250.34,-132.51 251.37,-135.85 251.37,-135.85 251.37,-135.85 250.34,-132.51 248.36,-136.79 249.3,-129.17 249.3,-129.17"/>
</a>
</g>
</g>
</g>
</svg>
</svg>

<style type='text/css'>
<![CDATA[
[data-mouse-over-selected='false'] { opacity: 0.7; }
[data-mouse-over-selected='true']  { opacity: 1.0; }
]]>
</style>
<script type="application/ecmascript"><![CDATA[
document.addEventListener('DOMContentLoaded', (event) => {
  highlightEdges();
  highlightAdjacentNodes();
});
]]></script>
</svg>
