<?xml version="1.0" encoding="UTF-8" standalone="no"?>
<!DOCTYPE svg PUBLIC "-//W3C//DTD SVG 1.1//EN"
 "http://www.w3.org/Graphics/SVG/1.1/DTD/svg11.dtd">
<!-- Generated by graphviz version 2.43.0 (0)
 -->
<!-- Title: Core/Inc/top_board/MTi/Lib/MTi/xbusparser.h Pages: 1 -->
<svg width="241pt" height="137pt"
 viewBox="0.00 0.00 241.00 137.00" xmlns="http://www.w3.org/2000/svg" xmlns:xlink="http://www.w3.org/1999/xlink">
<g id="graph0" class="graph" transform="scale(1 1) rotate(0) translate(4 133)">
<title>Core/Inc/top_board/MTi/Lib/MTi/xbusparser.h</title>
<!-- Node1 -->
<g id="Node000001" class="node">
<title>Node1</title>
<g id="a_Node000001"><a xlink:title=" ">
<polygon fill="#999999" stroke="#666666" points="233,-129 0,-129 0,-110 233,-110 233,-129"/>
<text text-anchor="middle" x="116.5" y="-117" font-family="Helvetica,sans-Serif" font-size="10.00">Core/Inc/top_board/MTi/Lib/MTi/xbusparser.h</text>
</a>
</g>
</g>
<!-- Node2 -->
<g id="Node000002" class="node">
<title>Node2</title>
<g id="a_Node000002"><a xlink:href="xbusmessage_8h.html" target="_top" xlink:title=" ">
<polygon fill="white" stroke="#666666" points="163,-74 70,-74 70,-55 163,-55 163,-74"/>
<text text-anchor="middle" x="116.5" y="-62" font-family="Helvetica,sans-Serif" font-size="10.00">xbusmessage.h</text>
</a>
</g>
</g>
<!-- Node1&#45;&gt;Node2 -->
<g id="edge1_Node000001_Node000002" class="edge">
<title>Node1&#45;&gt;Node2</title>
<g id="a_edge1_Node000001_Node000002"><a xlink:title=" ">
<path fill="none" stroke="#63b8ff" d="M116.5,-109.75C116.5,-102.03 116.5,-90.6 116.5,-81.28"/>
<polygon fill="#63b8ff" stroke="#63b8ff" points="116.5,-74.09 119.65,-81.09 116.5,-77.59 116.5,-81.09 116.5,-81.09 116.5,-81.09 116.5,-77.59 113.35,-81.09 116.5,-74.09 116.5,-74.09"/>
</a>
</g>
</g>
<!-- Node3 -->
<g id="Node000003" class="node">
<title>Node3</title>
<g id="a_Node000003"><a xlink:title=" ">
<polygon fill="#e0e0e0" stroke="#999999" points="67.5,-19 11.5,-19 11.5,0 67.5,0 67.5,-19"/>
<text text-anchor="middle" x="39.5" y="-7" font-family="Helvetica,sans-Serif" font-size="10.00">stddef.h</text>
</a>
</g>
</g>
<!-- Node1&#45;&gt;Node3 -->
<g id="edge5_Node000001_Node000003" class="edge">
<title>Node1&#45;&gt;Node3</title>
<g id="a_edge5_Node000001_Node000003"><a xlink:title=" ">
<path fill="none" stroke="#63b8ff" d="M101.46,-109.69C89.15,-101.77 72.09,-89.08 61.5,-74 51.41,-59.63 45.58,-40.22 42.49,-26.65"/>
<polygon fill="#63b8ff" stroke="#63b8ff" points="40.98,-19.42 45.5,-25.63 41.69,-22.85 42.41,-26.27 42.41,-26.27 42.41,-26.27 41.69,-22.85 39.33,-26.92 40.98,-19.42 40.98,-19.42"/>
</a>
</g>
</g>
<!-- Node4 -->
<g id="Node000004" class="node">
<title>Node4</title>
<g id="a_Node000004"><a xlink:title=" ">
<polygon fill="#e0e0e0" stroke="#999999" points="219,-19 166,-19 166,0 219,0 219,-19"/>
<text text-anchor="middle" x="192.5" y="-7" font-family="Helvetica,sans-Serif" font-size="10.00">stdint.h</text>
</a>
</g>
</g>
<!-- Node1&#45;&gt;Node4 -->
<g id="edge6_Node000001_Node000004" class="edge">
<title>Node1&#45;&gt;Node4</title>
<g id="a_edge6_Node000001_Node000004"><a xlink:title=" ">
<path fill="none" stroke="#63b8ff" d="M131.67,-109.98C144.3,-102.16 161.88,-89.45 172.5,-74 182.46,-59.51 187.65,-39.81 190.21,-26.22"/>
<polygon fill="#63b8ff" stroke="#63b8ff" points="191.44,-19 193.37,-26.43 190.85,-22.46 190.27,-25.91 190.27,-25.91 190.27,-25.91 190.85,-22.46 187.16,-25.38 191.44,-19 191.44,-19"/>
</a>
</g>
</g>
<!-- Node2&#45;&gt;Node3 -->
<g id="edge2_Node000002_Node000003" class="edge">
<title>Node2&#45;&gt;Node3</title>
<g id="a_edge2_Node000002_Node000003"><a xlink:title=" ">
<path fill="none" stroke="#63b8ff" d="M104.13,-54.98C91.63,-46.38 72.18,-32.99 57.87,-23.15"/>
<polygon fill="#63b8ff" stroke="#63b8ff" points="52.1,-19.17 59.65,-20.54 54.98,-21.15 57.86,-23.14 57.86,-23.14 57.86,-23.14 54.98,-21.15 56.08,-25.73 52.1,-19.17 52.1,-19.17"/>
</a>
</g>
</g>
<!-- Node2&#45;&gt;Node4 -->
<g id="edge3_Node000002_Node000004" class="edge">
<title>Node2&#45;&gt;Node4</title>
<g id="a_edge3_Node000002_Node000004"><a xlink:title=" ">
<path fill="none" stroke="#63b8ff" d="M128.71,-54.98C140.94,-46.46 159.91,-33.23 173.98,-23.41"/>
<polygon fill="#63b8ff" stroke="#63b8ff" points="180.07,-19.17 176.13,-25.76 177.2,-21.17 174.33,-23.17 174.33,-23.17 174.33,-23.17 177.2,-21.17 172.52,-20.59 180.07,-19.17 180.07,-19.17"/>
</a>
</g>
</g>
<!-- Node5 -->
<g id="Node000005" class="node">
<title>Node5</title>
<g id="a_Node000005"><a xlink:title=" ">
<polygon fill="#e0e0e0" stroke="#999999" points="147.5,-19 85.5,-19 85.5,0 147.5,0 147.5,-19"/>
<text text-anchor="middle" x="116.5" y="-7" font-family="Helvetica,sans-Serif" font-size="10.00">stdbool.h</text>
</a>
</g>
</g>
<!-- Node2&#45;&gt;Node5 -->
<g id="edge4_Node000002_Node000005" class="edge">
<title>Node2&#45;&gt;Node5</title>
<g id="a_edge4_Node000002_Node000005"><a xlink:title=" ">
<path fill="none" stroke="#63b8ff" d="M116.5,-54.75C116.5,-47.03 116.5,-35.6 116.5,-26.28"/>
<polygon fill="#63b8ff" stroke="#63b8ff" points="116.5,-19.09 119.65,-26.09 116.5,-22.59 116.5,-26.09 116.5,-26.09 116.5,-26.09 116.5,-22.59 113.35,-26.09 116.5,-19.09 116.5,-19.09"/>
</a>
</g>
</g>
</g>
</svg>
